<?xml version="1.0" encoding="UTF-8"?>
<svg xmlns="http://www.w3.org/2000/svg" width="124" height="38" viewBox="0 0 124 38" fill="none">
  <g clip-path="url(#clip0_423_7502)">
    <path fill-rule="evenodd" clip-rule="evenodd" d="M79.1131 36.4562C78.8921 36.8484 78.86 37.0089 78.4001 37.1871C78.2147 37.2192 78.0293 37.2192 77.8403 37.1871C77.3661 37.016 77.3091 36.7343 77.113 36.3742L61.1043 6.28585C60.9724 6.05053 60.8334 5.81522 60.8084 5.53712C60.8084 5.53712 60.6622 4.76343 61.4573 4.76343C63.1687 4.76343 64.6056 4.80621 66.1779 4.80621C66.6949 4.79908 67.0051 4.95239 67.2475 5.36241L77.4909 25.1076C77.6941 25.3964 77.7476 25.4605 77.8867 25.6245C78.2503 25.7707 78.5142 25.6602 78.7281 25.2573L88.7397 6.15037C88.7397 6.15037 89.353 4.79908 89.9555 4.79908C91.5706 4.80621 93.1216 4.89178 94.7403 4.89178C95.4534 4.89178 95.4534 5.45155 95.4141 5.59773C94.9257 6.45699 94.7189 6.89553 94.5299 7.33408L79.1131 36.4562Z" fill="#EFF0F1"></path>
    <path fill-rule="evenodd" clip-rule="evenodd" d="M105.651 0.941496C105.872 0.549302 105.904 0.38886 106.364 0.21059C106.549 0.178501 106.735 0.178501 106.924 0.21059C107.398 0.381729 107.455 0.663395 107.651 1.0235L123.663 31.1154C123.795 31.3507 123.934 31.5861 123.959 31.8642C123.959 31.8642 124.105 32.6379 123.31 32.6379C121.599 32.6379 120.162 32.5951 118.59 32.5951C118.073 32.6022 117.762 32.4489 117.52 32.0389L107.277 12.2937C107.073 12.0049 107.02 11.9407 106.881 11.7767C106.517 11.6305 106.253 11.7411 106.039 12.144L96.0277 31.2509C96.0277 31.2509 95.4145 32.6022 94.8119 32.6022C93.1968 32.5951 91.6459 32.5095 90.0272 32.5095C89.3141 32.5095 89.3141 31.9497 89.3533 31.8036C89.8418 30.9443 90.0486 30.5057 90.2375 30.0672L105.651 0.941496Z" fill="#EFF0F1"></path>
    <path d="M59.8745 23.9382C59.4752 23.0433 58.6944 22.0985 58.2059 21.5352C57.475 20.8256 56.9152 20.355 55.9169 20.0056C55.9775 19.8452 56.0809 19.8024 56.1665 19.7489C56.958 19.2497 57.5748 18.5794 58.0526 17.7844C58.8049 16.5329 59.1935 15.1816 59.1507 13.7163C59.0545 13.3454 59.1971 12.9818 59.1543 12.6074C58.9796 11.085 58.4412 9.71231 57.5427 8.47512C57.475 8.38242 57.4001 8.30042 57.3217 8.21841C56.8653 7.79057 56.4624 7.30567 55.9454 6.93844C55.7565 6.79939 55.5568 6.67816 55.3714 6.53911C54.5977 6.00787 53.7313 5.69055 52.8364 5.43384C52.6902 5.39462 52.5441 5.3447 52.4014 5.29479C51.3247 5.06304 50.2444 5.02738 49.1391 5.03808C44.2973 5.088 39.4519 5.05947 34.6101 5.05947C34.4319 5.05947 34.2465 5.08086 34.0718 5.02025C33.4514 4.81703 32.806 5.38392 32.9772 6.02569C33.0948 6.28953 33.1198 6.56763 33.1198 6.85643C33.1162 16.0801 33.1198 25.3038 33.1127 34.5239C33.1127 35.3154 33.1661 36.1141 33.0414 36.902C33.0806 37.2193 33.2588 37.394 33.5726 37.4333C38.5178 37.4546 48.779 37.4832 49.4136 37.4832C50.6152 37.4832 53.2464 37.1338 53.9453 36.8806C56.8118 35.8431 60.5234 33.3758 60.5234 29.4361C60.5662 29.0082 60.83 25.9563 59.8638 23.9311L59.8745 23.9382ZM38.4893 10.6072C38.4893 10.0118 38.6996 9.80145 39.3058 9.80145C42.5075 9.80145 45.7128 9.80501 48.9145 9.81927C49.517 9.81927 53.6636 10.2257 53.6957 13.948C53.7206 16.5436 52.4228 18.198 50.2123 18.198C49.1712 18.198 40.9708 18.2122 39.2986 18.2086C38.664 18.2086 38.4857 18.0375 38.4857 17.4207C38.4857 15.1495 38.4857 12.8784 38.4857 10.6072H38.4893ZM51.8595 32.3526C51.3675 32.4738 47.2495 32.6663 45.7377 32.6699C43.6223 32.6746 41.5092 32.6746 39.3985 32.6699C38.6283 32.6699 38.475 32.5166 38.475 31.7465C38.475 29.1152 38.475 26.4839 38.475 23.8562C38.475 23.0754 38.6533 22.8971 39.4198 22.8971C41.1918 22.8971 43.5771 22.8971 45.645 22.8971C47.1532 22.9292 50.6294 22.8009 52.3943 23.4034C53.9702 23.9418 55.211 25.2396 55.211 27.7425C55.211 30.1099 53.5852 31.9283 51.8595 32.3526Z" fill="#EFF0F1"></path>
    <path d="M27.5649 23.71C26.6308 21.9023 24.6057 20.1267 23.6074 19.7773C23.668 19.6169 23.7714 19.5741 23.8569 19.5206C24.6484 19.0215 25.2653 18.3512 25.743 17.5561C26.4953 16.3046 26.884 14.9534 26.8412 13.488C26.7449 13.1172 26.8875 12.7535 26.8447 12.3791C26.67 10.8567 26.1317 9.48404 25.2332 8.24685C25.1654 8.15415 25.0906 8.07214 25.0121 7.99014C24.5557 7.56229 24.1529 7.0774 23.6359 6.71016C23.4469 6.57111 23.2472 6.44989 23.0618 6.31084C22.2882 5.7796 21.4218 5.46228 20.5269 5.20557C20.3807 5.16635 20.2345 5.11643 20.0919 5.06652C19.0151 4.83477 17.9348 4.79911 16.8295 4.80981C11.9877 4.85972 7.14236 4.8312 2.30056 4.8312C2.12229 4.8312 1.93689 4.85259 1.76219 4.79198C1.14181 4.58875 0.49647 5.15565 0.667609 5.79742C0.785267 6.06126 0.810225 6.33936 0.810225 6.62816C0.80666 15.8518 0.810225 25.0755 0.803094 34.2956C0.803094 35.0871 0.856575 35.8858 0.731786 36.6737C0.771006 36.9911 0.949275 37.1658 1.26303 37.205C6.20823 37.2264 16.4694 37.2549 17.1041 37.2549C18.3056 37.2549 20.9369 36.9055 21.6357 36.6523C24.5023 35.6148 27.6897 33.119 28.2138 29.2078C28.3885 27.8601 28.5668 25.6602 27.5542 23.7028L27.5649 23.71ZM6.17971 10.379C6.17971 9.78353 6.39007 9.57318 6.99618 9.57318C10.1979 9.57318 13.4032 9.57674 16.6049 9.591C17.2075 9.591 21.354 9.99746 21.3861 13.7197C21.4111 16.3153 19.9493 17.5454 17.7672 17.8805C16.8081 18.0267 8.66122 17.9804 6.99262 17.9804C6.35798 17.9804 6.17971 17.8092 6.17971 17.1924C6.17971 14.9213 6.17971 12.6501 6.17971 10.379ZM19.5499 32.1243C19.0579 32.2455 14.9399 32.4381 13.4282 32.4416C11.3127 32.4464 9.1996 32.4464 7.08888 32.4416C6.31876 32.4416 6.16545 32.2883 6.16545 31.5182C6.16545 28.8869 6.16545 26.2557 6.16545 23.628C6.16545 22.8471 6.34372 22.6689 7.11028 22.6689C8.88228 22.6689 11.2675 22.6689 13.3355 22.6689C14.8436 22.701 18.3199 22.5726 20.0847 23.1752C21.6606 23.7135 22.9014 25.0113 22.9014 27.5142C22.9014 29.8817 21.2756 31.7 19.5499 32.1243Z" fill="#EFF0F1"></path>
  </g>
  <defs>
    <clipPath id="clip0_423_7502">
      <rect width="123.323" height="37.3083" fill="white" transform="translate(0.643555 0.182007)"></rect>
    </clipPath>
  </defs>
</svg>
