<svg width="31" height="32" viewBox="0 0 31 32" fill="none" xmlns="http://www.w3.org/2000/svg">
<path d="M26.387 26.8806C32.3493 20.8274 32.3493 11.0134 26.387 4.96026C20.4247 -1.09287 10.7579 -1.09287 4.79566 4.96026C-1.16662 11.0134 -1.16662 20.8274 4.79566 26.8806C10.7579 32.9337 20.4247 32.9337 26.387 26.8806Z" fill="#FA484B"/>
<path d="M12.7153 5.71314L6.83692 23.0993C6.76597 23.31 6.91838 23.5288 7.13911 23.5288H11.4303L15.2984 11.5743C15.3956 11.2782 15.8081 11.2782 15.9027 11.5743L19.7577 23.5261H23.9726C24.2275 23.5261 24.4089 23.27 24.3248 23.0246L18.4727 5.71314C18.4202 5.56108 18.2783 5.45703 18.1206 5.45703H13.0674C12.9071 5.45703 12.7678 5.55841 12.7153 5.71314V5.71314Z" fill="white"/>
<path d="M15.8655 27.8031L19.1765 24.1642C19.3973 23.9215 19.2265 23.5293 18.9032 23.5293H12.2786C11.9528 23.5293 11.7846 23.9215 12.0053 24.1642L15.3163 27.8031C15.4635 27.9659 15.7157 27.9659 15.8629 27.8031H15.8655Z" fill="#85001B"/>
</svg>
