<svg width="726" height="27" viewBox="0 0 726 27" fill="none" xmlns="http://www.w3.org/2000/svg">
<path d="M256.918 13.4229C256.918 14.0199 256.768 14.5212 256.467 14.9268C256.166 15.3278 255.758 15.6309 255.243 15.8359C254.728 16.0365 254.145 16.1367 253.493 16.1367C253.088 16.1367 252.718 16.1162 252.386 16.0752C252.058 16.0387 251.759 15.9886 251.49 15.9248C251.226 15.861 250.984 15.7881 250.766 15.7061V15.002C251.121 15.1387 251.531 15.2594 251.996 15.3643C252.465 15.4645 252.976 15.5146 253.527 15.5146C254.047 15.5146 254.507 15.4395 254.908 15.2891C255.314 15.1387 255.633 14.9108 255.865 14.6055C256.098 14.3001 256.214 13.915 256.214 13.4502C256.214 13.04 256.116 12.7051 255.92 12.4453C255.729 12.181 255.439 11.9554 255.052 11.7686C254.664 11.5771 254.177 11.3835 253.589 11.1875C253.179 11.0462 252.805 10.8981 252.468 10.7432C252.135 10.5837 251.85 10.4014 251.613 10.1963C251.376 9.98665 251.194 9.736 251.066 9.44434C250.943 9.14811 250.882 8.79948 250.882 8.39844C250.882 7.84701 251.021 7.38444 251.299 7.01074C251.581 6.63249 251.962 6.34766 252.44 6.15625C252.924 5.96029 253.466 5.8623 254.067 5.8623C254.546 5.8623 254.999 5.90788 255.428 5.99902C255.861 6.08561 256.278 6.21777 256.679 6.39551L256.433 7.00391C256.032 6.83073 255.631 6.70312 255.229 6.62109C254.828 6.53906 254.432 6.49805 254.04 6.49805C253.571 6.49805 253.151 6.56868 252.782 6.70996C252.418 6.84668 252.128 7.05404 251.914 7.33203C251.7 7.61003 251.593 7.96094 251.593 8.38477C251.593 8.82227 251.691 9.17546 251.887 9.44434C252.087 9.71322 252.37 9.93652 252.734 10.1143C253.104 10.292 253.539 10.4652 254.04 10.6338C254.632 10.8343 255.143 11.0462 255.571 11.2695C256 11.4883 256.33 11.7663 256.562 12.1035C256.799 12.4408 256.918 12.8805 256.918 13.4229ZM265.046 12.2744C265.046 12.8486 264.975 13.3727 264.834 13.8467C264.693 14.3161 264.483 14.7217 264.205 15.0635C263.927 15.4053 263.581 15.6696 263.166 15.8564C262.756 16.0433 262.277 16.1367 261.73 16.1367C261.211 16.1367 260.748 16.0456 260.343 15.8633C259.937 15.6764 259.593 15.4121 259.311 15.0703C259.033 14.7285 258.821 14.3229 258.675 13.8535C258.529 13.3796 258.456 12.8532 258.456 12.2744C258.456 11.4769 258.588 10.791 258.853 10.2168C259.121 9.63802 259.504 9.19596 260.001 8.89062C260.502 8.58073 261.102 8.42578 261.799 8.42578C262.519 8.42578 263.118 8.58984 263.597 8.91797C264.08 9.24154 264.442 9.69271 264.684 10.2715C264.925 10.8503 265.046 11.5179 265.046 12.2744ZM259.167 12.2744C259.167 12.9261 259.26 13.4958 259.447 13.9834C259.634 14.471 259.917 14.8516 260.295 15.125C260.678 15.3984 261.161 15.5352 261.744 15.5352C262.341 15.5352 262.831 15.3984 263.214 15.125C263.597 14.8516 263.879 14.4688 264.062 13.9766C264.244 13.4844 264.335 12.917 264.335 12.2744C264.335 11.6501 264.248 11.0941 264.075 10.6064C263.902 10.1188 263.629 9.736 263.255 9.45801C262.881 9.17546 262.394 9.03418 261.792 9.03418C260.931 9.03418 260.277 9.32129 259.83 9.89551C259.388 10.4697 259.167 11.2627 259.167 12.2744ZM267.801 16H267.104V5.36328H267.801V16ZM276.045 8.56934V16H275.484L275.382 14.6602H275.341C275.213 14.9336 275.033 15.182 274.801 15.4053C274.568 15.6286 274.284 15.8063 273.946 15.9385C273.609 16.0706 273.217 16.1367 272.771 16.1367C272.201 16.1367 271.722 16.0387 271.335 15.8428C270.952 15.6423 270.663 15.3415 270.467 14.9404C270.271 14.5394 270.173 14.0381 270.173 13.4365V8.56934H270.863V13.3682C270.863 14.111 271.03 14.6579 271.362 15.0088C271.7 15.3597 272.192 15.5352 272.839 15.5352C273.386 15.5352 273.844 15.4303 274.213 15.2207C274.587 15.0111 274.869 14.6943 275.061 14.2705C275.257 13.8421 275.354 13.3089 275.354 12.6709V8.56934H276.045ZM281.521 16.1367C280.782 16.1367 280.158 15.984 279.647 15.6787C279.142 15.3688 278.759 14.929 278.499 14.3594C278.244 13.7852 278.116 13.1061 278.116 12.3223C278.116 11.5065 278.264 10.8092 278.561 10.2305C278.857 9.64714 279.274 9.20052 279.812 8.89062C280.349 8.58073 280.98 8.42578 281.705 8.42578C282.061 8.42578 282.391 8.45768 282.696 8.52148C283.002 8.58529 283.277 8.67415 283.523 8.78809L283.339 9.39648C283.084 9.28255 282.812 9.19596 282.525 9.13672C282.238 9.07747 281.963 9.04785 281.698 9.04785C281.088 9.04785 280.568 9.18229 280.14 9.45117C279.716 9.71549 279.39 10.0938 279.162 10.5859C278.939 11.0736 278.827 11.6501 278.827 12.3154C278.827 12.9398 278.923 13.4935 279.114 13.9766C279.306 14.4551 279.6 14.8333 279.996 15.1113C280.393 15.3848 280.901 15.5215 281.521 15.5215C281.881 15.5215 282.222 15.485 282.546 15.4121C282.874 15.3392 283.173 15.2458 283.441 15.1318V15.7607C283.2 15.8701 282.92 15.959 282.601 16.0273C282.286 16.1003 281.926 16.1367 281.521 16.1367ZM285.889 8.56934V16H285.198V8.56934H285.889ZM285.554 5.82129C285.727 5.82129 285.854 5.8737 285.937 5.97852C286.019 6.07878 286.06 6.21549 286.06 6.38867C286.06 6.56185 286.019 6.69857 285.937 6.79883C285.854 6.89909 285.727 6.94922 285.554 6.94922C285.39 6.94922 285.267 6.89909 285.185 6.79883C285.103 6.69857 285.062 6.56185 285.062 6.38867C285.062 6.21549 285.103 6.07878 285.185 5.97852C285.267 5.8737 285.39 5.82129 285.554 5.82129ZM294.536 12.2744C294.536 12.8486 294.465 13.3727 294.324 13.8467C294.183 14.3161 293.973 14.7217 293.695 15.0635C293.417 15.4053 293.071 15.6696 292.656 15.8564C292.246 16.0433 291.768 16.1367 291.221 16.1367C290.701 16.1367 290.239 16.0456 289.833 15.8633C289.427 15.6764 289.083 15.4121 288.801 15.0703C288.523 14.7285 288.311 14.3229 288.165 13.8535C288.019 13.3796 287.946 12.8532 287.946 12.2744C287.946 11.4769 288.078 10.791 288.343 10.2168C288.612 9.63802 288.994 9.19596 289.491 8.89062C289.993 8.58073 290.592 8.42578 291.289 8.42578C292.009 8.42578 292.608 8.58984 293.087 8.91797C293.57 9.24154 293.932 9.69271 294.174 10.2715C294.415 10.8503 294.536 11.5179 294.536 12.2744ZM288.657 12.2744C288.657 12.9261 288.751 13.4958 288.938 13.9834C289.124 14.471 289.407 14.8516 289.785 15.125C290.168 15.3984 290.651 15.5352 291.234 15.5352C291.831 15.5352 292.321 15.3984 292.704 15.125C293.087 14.8516 293.369 14.4688 293.552 13.9766C293.734 13.4844 293.825 12.917 293.825 12.2744C293.825 11.6501 293.739 11.0941 293.565 10.6064C293.392 10.1188 293.119 9.736 292.745 9.45801C292.371 9.17546 291.884 9.03418 291.282 9.03418C290.421 9.03418 289.767 9.32129 289.32 9.89551C288.878 10.4697 288.657 11.2627 288.657 12.2744ZM299.861 8.42578C300.695 8.42578 301.336 8.64453 301.782 9.08203C302.229 9.51953 302.452 10.2054 302.452 11.1396V16H301.769V11.1807C301.769 10.4424 301.6 9.90007 301.263 9.55371C300.925 9.20736 300.436 9.03418 299.793 9.03418C298.977 9.03418 298.353 9.27344 297.92 9.75195C297.492 10.2259 297.277 10.9437 297.277 11.9053V16H296.587V8.56934H297.147L297.25 9.92285H297.291C297.423 9.64486 297.603 9.39421 297.831 9.1709C298.063 8.94303 298.348 8.76302 298.686 8.63086C299.023 8.49414 299.415 8.42578 299.861 8.42578ZM307.675 8.42578C308.308 8.42578 308.835 8.57389 309.254 8.87012C309.678 9.16634 309.992 9.57194 310.197 10.0869C310.407 10.6019 310.512 11.1921 310.512 11.8574V12.3564H305.146C305.146 13.3773 305.38 14.1611 305.85 14.708C306.324 15.2549 307 15.5283 307.88 15.5283C308.34 15.5283 308.739 15.4919 309.076 15.4189C309.418 15.3415 309.796 15.2116 310.211 15.0293V15.665C309.846 15.8291 309.482 15.9476 309.117 16.0205C308.753 16.098 308.333 16.1367 307.859 16.1367C307.107 16.1367 306.476 15.9818 305.966 15.6719C305.46 15.3574 305.077 14.9154 304.817 14.3457C304.562 13.776 304.435 13.1107 304.435 12.3496C304.435 11.6068 304.558 10.9391 304.804 10.3467C305.054 9.75423 305.419 9.28711 305.897 8.94531C306.381 8.59896 306.973 8.42578 307.675 8.42578ZM307.668 9.02051C306.957 9.02051 306.381 9.25749 305.938 9.73145C305.501 10.2008 305.243 10.8799 305.166 11.7686H309.794C309.794 11.2262 309.716 10.7477 309.562 10.333C309.407 9.91829 309.172 9.59701 308.857 9.36914C308.548 9.13672 308.151 9.02051 307.668 9.02051ZM317.204 14.0518C317.204 14.4938 317.092 14.8721 316.869 15.1865C316.65 15.4964 316.329 15.7334 315.905 15.8975C315.481 16.057 314.96 16.1367 314.34 16.1367C313.825 16.1367 313.365 16.0911 312.959 16C312.553 15.9089 312.214 15.7972 311.94 15.665V14.9814C312.282 15.1501 312.66 15.2868 313.075 15.3916C313.49 15.4964 313.916 15.5488 314.354 15.5488C315.119 15.5488 315.671 15.4189 316.008 15.1592C316.345 14.8994 316.514 14.5439 316.514 14.0928C316.514 13.7965 316.429 13.5527 316.261 13.3613C316.097 13.1654 315.86 12.9967 315.55 12.8555C315.24 12.7142 314.866 12.5706 314.429 12.4248C313.973 12.2699 313.567 12.1172 313.212 11.9668C312.861 11.8118 312.585 11.609 312.385 11.3584C312.184 11.1032 312.084 10.7568 312.084 10.3193C312.084 9.72233 312.323 9.25749 312.802 8.9248C313.28 8.59212 313.923 8.42578 314.729 8.42578C315.176 8.42578 315.591 8.46908 315.974 8.55566C316.361 8.6377 316.712 8.74479 317.026 8.87695L316.78 9.46484C316.498 9.33268 316.172 9.22559 315.803 9.14355C315.434 9.06152 315.064 9.02051 314.695 9.02051C314.089 9.02051 313.615 9.1276 313.273 9.3418C312.932 9.55599 312.761 9.87044 312.761 10.2852C312.761 10.6042 312.843 10.8548 313.007 11.0371C313.171 11.2148 313.406 11.3652 313.711 11.4883C314.016 11.6068 314.379 11.7389 314.798 11.8848C315.231 12.0352 315.63 12.1924 315.994 12.3564C316.363 12.5205 316.657 12.7324 316.876 12.9922C317.095 13.252 317.204 13.6051 317.204 14.0518ZM325.503 16H324.792V6.6416H321.552V6.00586H328.743V6.6416H325.503V16ZM332.872 8.42578C333.506 8.42578 334.032 8.57389 334.451 8.87012C334.875 9.16634 335.189 9.57194 335.395 10.0869C335.604 10.6019 335.709 11.1921 335.709 11.8574V12.3564H330.343C330.343 13.3773 330.577 14.1611 331.047 14.708C331.521 15.2549 332.198 15.5283 333.077 15.5283C333.537 15.5283 333.936 15.4919 334.273 15.4189C334.615 15.3415 334.993 15.2116 335.408 15.0293V15.665C335.044 15.8291 334.679 15.9476 334.314 16.0205C333.95 16.098 333.531 16.1367 333.057 16.1367C332.305 16.1367 331.674 15.9818 331.163 15.6719C330.657 15.3574 330.274 14.9154 330.015 14.3457C329.759 13.776 329.632 13.1107 329.632 12.3496C329.632 11.6068 329.755 10.9391 330.001 10.3467C330.252 9.75423 330.616 9.28711 331.095 8.94531C331.578 8.59896 332.17 8.42578 332.872 8.42578ZM332.865 9.02051C332.154 9.02051 331.578 9.25749 331.136 9.73145C330.698 10.2008 330.441 10.8799 330.363 11.7686H334.991C334.991 11.2262 334.914 10.7477 334.759 10.333C334.604 9.91829 334.369 9.59701 334.055 9.36914C333.745 9.13672 333.348 9.02051 332.865 9.02051ZM340.733 16.1367C339.995 16.1367 339.371 15.984 338.86 15.6787C338.354 15.3688 337.972 14.929 337.712 14.3594C337.457 13.7852 337.329 13.1061 337.329 12.3223C337.329 11.5065 337.477 10.8092 337.773 10.2305C338.07 9.64714 338.487 9.20052 339.024 8.89062C339.562 8.58073 340.193 8.42578 340.918 8.42578C341.273 8.42578 341.604 8.45768 341.909 8.52148C342.215 8.58529 342.49 8.67415 342.736 8.78809L342.552 9.39648C342.297 9.28255 342.025 9.19596 341.738 9.13672C341.451 9.07747 341.175 9.04785 340.911 9.04785C340.3 9.04785 339.781 9.18229 339.353 9.45117C338.929 9.71549 338.603 10.0938 338.375 10.5859C338.152 11.0736 338.04 11.6501 338.04 12.3154C338.04 12.9398 338.136 13.4935 338.327 13.9766C338.519 14.4551 338.812 14.8333 339.209 15.1113C339.605 15.3848 340.114 15.5215 340.733 15.5215C341.093 15.5215 341.435 15.485 341.759 15.4121C342.087 15.3392 342.385 15.2458 342.654 15.1318V15.7607C342.413 15.8701 342.132 15.959 341.813 16.0273C341.499 16.1003 341.139 16.1367 340.733 16.1367ZM347.686 8.42578C348.52 8.42578 349.16 8.64453 349.606 9.08203C350.053 9.51953 350.276 10.2054 350.276 11.1396V16H349.593V11.1807C349.593 10.4424 349.424 9.90007 349.087 9.55371C348.75 9.20736 348.26 9.03418 347.617 9.03418C346.801 9.03418 346.177 9.27344 345.744 9.75195C345.316 10.2259 345.102 10.9437 345.102 11.9053V16H344.411V8.56934H344.972L345.074 9.92285H345.115C345.247 9.64486 345.427 9.39421 345.655 9.1709C345.888 8.94303 346.173 8.76302 346.51 8.63086C346.847 8.49414 347.239 8.42578 347.686 8.42578ZM358.849 12.2744C358.849 12.8486 358.778 13.3727 358.637 13.8467C358.495 14.3161 358.286 14.7217 358.008 15.0635C357.73 15.4053 357.383 15.6696 356.969 15.8564C356.559 16.0433 356.08 16.1367 355.533 16.1367C355.014 16.1367 354.551 16.0456 354.146 15.8633C353.74 15.6764 353.396 15.4121 353.113 15.0703C352.835 14.7285 352.623 14.3229 352.478 13.8535C352.332 13.3796 352.259 12.8532 352.259 12.2744C352.259 11.4769 352.391 10.791 352.655 10.2168C352.924 9.63802 353.307 9.19596 353.804 8.89062C354.305 8.58073 354.904 8.42578 355.602 8.42578C356.322 8.42578 356.921 8.58984 357.399 8.91797C357.882 9.24154 358.245 9.69271 358.486 10.2715C358.728 10.8503 358.849 11.5179 358.849 12.2744ZM352.97 12.2744C352.97 12.9261 353.063 13.4958 353.25 13.9834C353.437 14.471 353.719 14.8516 354.098 15.125C354.48 15.3984 354.964 15.5352 355.547 15.5352C356.144 15.5352 356.634 15.3984 357.017 15.125C357.399 14.8516 357.682 14.4688 357.864 13.9766C358.047 13.4844 358.138 12.917 358.138 12.2744C358.138 11.6501 358.051 11.0941 357.878 10.6064C357.705 10.1188 357.431 9.736 357.058 9.45801C356.684 9.17546 356.196 9.03418 355.595 9.03418C354.733 9.03418 354.079 9.32129 353.633 9.89551C353.191 10.4697 352.97 11.2627 352.97 12.2744ZM361.604 16H360.906V5.36328H361.604V16ZM370.237 12.2744C370.237 12.8486 370.167 13.3727 370.025 13.8467C369.884 14.3161 369.674 14.7217 369.396 15.0635C369.118 15.4053 368.772 15.6696 368.357 15.8564C367.947 16.0433 367.469 16.1367 366.922 16.1367C366.402 16.1367 365.94 16.0456 365.534 15.8633C365.129 15.6764 364.785 15.4121 364.502 15.0703C364.224 14.7285 364.012 14.3229 363.866 13.8535C363.72 13.3796 363.647 12.8532 363.647 12.2744C363.647 11.4769 363.78 10.791 364.044 10.2168C364.313 9.63802 364.696 9.19596 365.192 8.89062C365.694 8.58073 366.293 8.42578 366.99 8.42578C367.71 8.42578 368.31 8.58984 368.788 8.91797C369.271 9.24154 369.633 9.69271 369.875 10.2715C370.117 10.8503 370.237 11.5179 370.237 12.2744ZM364.358 12.2744C364.358 12.9261 364.452 13.4958 364.639 13.9834C364.826 14.471 365.108 14.8516 365.486 15.125C365.869 15.3984 366.352 15.5352 366.936 15.5352C367.533 15.5352 368.022 15.3984 368.405 15.125C368.788 14.8516 369.071 14.4688 369.253 13.9766C369.435 13.4844 369.526 12.917 369.526 12.2744C369.526 11.6501 369.44 11.0941 369.267 10.6064C369.093 10.1188 368.82 9.736 368.446 9.45801C368.073 9.17546 367.585 9.03418 366.983 9.03418C366.122 9.03418 365.468 9.32129 365.021 9.89551C364.579 10.4697 364.358 11.2627 364.358 12.2744ZM368.938 5.27441V5.39062C368.829 5.53646 368.695 5.7028 368.535 5.88965C368.376 6.07194 368.202 6.26107 368.016 6.45703C367.829 6.65299 367.64 6.84212 367.448 7.02441C367.257 7.20671 367.072 7.37077 366.895 7.5166H366.402V7.40039C366.585 7.2181 366.785 7.00163 367.004 6.75098C367.223 6.49577 367.43 6.23828 367.626 5.97852C367.826 5.71419 367.991 5.47949 368.118 5.27441H368.938ZM374.257 19.3633C373.323 19.3633 372.596 19.1833 372.076 18.8232C371.561 18.4632 371.304 17.9596 371.304 17.3125C371.304 16.8112 371.461 16.3783 371.775 16.0137C372.09 15.6536 372.516 15.4372 373.054 15.3643C372.84 15.264 372.664 15.1273 372.527 14.9541C372.395 14.7809 372.329 14.5804 372.329 14.3525C372.329 14.0973 372.409 13.8604 372.568 13.6416C372.728 13.4183 372.967 13.2132 373.286 13.0264C372.858 12.8714 372.521 12.6094 372.274 12.2402C372.028 11.8665 371.905 11.4176 371.905 10.8936C371.905 10.3923 372.012 9.95703 372.227 9.58789C372.441 9.21875 372.744 8.93392 373.136 8.7334C373.532 8.52832 373.999 8.42578 374.537 8.42578C374.701 8.42578 374.849 8.43034 374.981 8.43945C375.118 8.44857 375.243 8.46452 375.357 8.4873C375.471 8.50553 375.574 8.5306 375.665 8.5625H378.064V9.05469L376.533 9.15723C376.734 9.39876 376.884 9.66081 376.984 9.94336C377.085 10.2214 377.135 10.5153 377.135 10.8252C377.135 11.5635 376.902 12.1491 376.438 12.582C375.973 13.015 375.326 13.2314 374.496 13.2314C374.268 13.2314 374.045 13.2109 373.826 13.1699C373.548 13.334 373.336 13.5003 373.19 13.6689C373.045 13.833 372.972 14.0381 372.972 14.2842C372.972 14.4391 373.017 14.5667 373.108 14.667C373.2 14.7627 373.332 14.8379 373.505 14.8926C373.678 14.9427 373.89 14.9678 374.141 14.9678H375.446C376.253 14.9678 376.87 15.1318 377.299 15.46C377.727 15.7881 377.941 16.2712 377.941 16.9092C377.941 17.6885 377.62 18.2923 376.978 18.7207C376.34 19.1491 375.433 19.3633 374.257 19.3633ZM374.305 18.7822C374.956 18.7822 375.499 18.7116 375.932 18.5703C376.369 18.429 376.697 18.2194 376.916 17.9414C377.135 17.668 377.244 17.3285 377.244 16.9229C377.244 16.5902 377.164 16.3327 377.005 16.1504C376.845 15.9681 376.62 15.8428 376.328 15.7744C376.036 15.7015 375.692 15.665 375.296 15.665H374.052C373.655 15.665 373.302 15.7197 372.992 15.8291C372.682 15.9339 372.441 16.1025 372.268 16.335C372.099 16.5674 372.015 16.8773 372.015 17.2646C372.015 17.7614 372.208 18.1374 372.596 18.3926C372.988 18.6523 373.557 18.7822 374.305 18.7822ZM374.523 12.6777C375.139 12.6777 375.61 12.5228 375.938 12.2129C376.267 11.903 376.431 11.4541 376.431 10.8662C376.431 10.2373 376.262 9.76562 375.925 9.45117C375.588 9.13672 375.116 8.97949 374.51 8.97949C373.922 8.97949 373.459 9.14811 373.122 9.48535C372.789 9.81803 372.623 10.2874 372.623 10.8936C372.623 11.4587 372.783 11.8984 373.102 12.2129C373.421 12.5228 373.895 12.6777 374.523 12.6777ZM380.252 8.56934V16H379.562V8.56934H380.252ZM379.917 5.82129C380.09 5.82129 380.218 5.8737 380.3 5.97852C380.382 6.07878 380.423 6.21549 380.423 6.38867C380.423 6.56185 380.382 6.69857 380.3 6.79883C380.218 6.89909 380.09 6.94922 379.917 6.94922C379.753 6.94922 379.63 6.89909 379.548 6.79883C379.466 6.69857 379.425 6.56185 379.425 6.38867C379.425 6.21549 379.466 6.07878 379.548 5.97852C379.63 5.8737 379.753 5.82129 379.917 5.82129ZM385.714 16.1367C384.976 16.1367 384.351 15.984 383.841 15.6787C383.335 15.3688 382.952 14.929 382.692 14.3594C382.437 13.7852 382.31 13.1061 382.31 12.3223C382.31 11.5065 382.458 10.8092 382.754 10.2305C383.05 9.64714 383.467 9.20052 384.005 8.89062C384.543 8.58073 385.174 8.42578 385.898 8.42578C386.254 8.42578 386.584 8.45768 386.89 8.52148C387.195 8.58529 387.471 8.67415 387.717 8.78809L387.532 9.39648C387.277 9.28255 387.006 9.19596 386.719 9.13672C386.432 9.07747 386.156 9.04785 385.892 9.04785C385.281 9.04785 384.761 9.18229 384.333 9.45117C383.909 9.71549 383.583 10.0938 383.355 10.5859C383.132 11.0736 383.021 11.6501 383.021 12.3154C383.021 12.9398 383.116 13.4935 383.308 13.9766C383.499 14.4551 383.793 14.8333 384.189 15.1113C384.586 15.3848 385.094 15.5215 385.714 15.5215C386.074 15.5215 386.416 15.485 386.739 15.4121C387.067 15.3392 387.366 15.2458 387.635 15.1318V15.7607C387.393 15.8701 387.113 15.959 386.794 16.0273C386.479 16.1003 386.119 16.1367 385.714 16.1367ZM391.989 8.43945C392.805 8.43945 393.416 8.64453 393.821 9.05469C394.227 9.46484 394.43 10.1188 394.43 11.0166V16H393.896L393.773 14.7012H393.732C393.573 14.9792 393.379 15.2275 393.151 15.4463C392.924 15.6605 392.643 15.8291 392.311 15.9521C391.982 16.0752 391.581 16.1367 391.107 16.1367C390.629 16.1367 390.219 16.057 389.877 15.8975C389.54 15.738 389.278 15.5055 389.091 15.2002C388.909 14.8949 388.817 14.5234 388.817 14.0859C388.817 13.3477 389.123 12.7871 389.733 12.4043C390.344 12.0169 391.221 11.7982 392.365 11.748L393.746 11.6797V11.1396C393.746 10.3786 393.596 9.83626 393.295 9.5127C392.994 9.18913 392.55 9.02734 391.962 9.02734C391.579 9.02734 391.21 9.07747 390.854 9.17773C390.504 9.27344 390.146 9.41243 389.781 9.59473L389.562 9.02051C389.918 8.85189 390.299 8.71289 390.704 8.60352C391.114 8.49414 391.543 8.43945 391.989 8.43945ZM393.739 12.2197L392.44 12.2744C391.497 12.32 390.779 12.4886 390.287 12.7803C389.795 13.0719 389.549 13.5094 389.549 14.0928C389.549 14.5622 389.695 14.9222 389.986 15.1729C390.283 15.4235 390.693 15.5488 391.217 15.5488C392.033 15.5488 392.655 15.3164 393.083 14.8516C393.516 14.3867 393.735 13.7533 393.739 12.9512V12.2197ZM401.464 14.0518C401.464 14.4938 401.352 14.8721 401.129 15.1865C400.91 15.4964 400.589 15.7334 400.165 15.8975C399.741 16.057 399.219 16.1367 398.6 16.1367C398.085 16.1367 397.624 16.0911 397.219 16C396.813 15.9089 396.474 15.7972 396.2 15.665V14.9814C396.542 15.1501 396.92 15.2868 397.335 15.3916C397.75 15.4964 398.176 15.5488 398.613 15.5488C399.379 15.5488 399.93 15.4189 400.268 15.1592C400.605 14.8994 400.773 14.5439 400.773 14.0928C400.773 13.7965 400.689 13.5527 400.521 13.3613C400.356 13.1654 400.119 12.9967 399.81 12.8555C399.5 12.7142 399.126 12.5706 398.688 12.4248C398.233 12.2699 397.827 12.1172 397.472 11.9668C397.121 11.8118 396.845 11.609 396.645 11.3584C396.444 11.1032 396.344 10.7568 396.344 10.3193C396.344 9.72233 396.583 9.25749 397.062 8.9248C397.54 8.59212 398.183 8.42578 398.989 8.42578C399.436 8.42578 399.851 8.46908 400.233 8.55566C400.621 8.6377 400.972 8.74479 401.286 8.87695L401.04 9.46484C400.757 9.33268 400.432 9.22559 400.062 9.14355C399.693 9.06152 399.324 9.02051 398.955 9.02051C398.349 9.02051 397.875 9.1276 397.533 9.3418C397.191 9.55599 397.021 9.87044 397.021 10.2852C397.021 10.6042 397.103 10.8548 397.267 11.0371C397.431 11.2148 397.665 11.3652 397.971 11.4883C398.276 11.6068 398.638 11.7389 399.058 11.8848C399.491 12.0352 399.889 12.1924 400.254 12.3564C400.623 12.5205 400.917 12.7324 401.136 12.9922C401.354 13.252 401.464 13.6051 401.464 14.0518ZM409.79 8.42578C410.424 8.42578 410.95 8.57389 411.369 8.87012C411.793 9.16634 412.107 9.57194 412.312 10.0869C412.522 10.6019 412.627 11.1921 412.627 11.8574V12.3564H407.261C407.261 13.3773 407.495 14.1611 407.965 14.708C408.439 15.2549 409.116 15.5283 409.995 15.5283C410.455 15.5283 410.854 15.4919 411.191 15.4189C411.533 15.3415 411.911 15.2116 412.326 15.0293V15.665C411.962 15.8291 411.597 15.9476 411.232 16.0205C410.868 16.098 410.449 16.1367 409.975 16.1367C409.223 16.1367 408.591 15.9818 408.081 15.6719C407.575 15.3574 407.192 14.9154 406.933 14.3457C406.677 13.776 406.55 13.1107 406.55 12.3496C406.55 11.6068 406.673 10.9391 406.919 10.3467C407.17 9.75423 407.534 9.28711 408.013 8.94531C408.496 8.59896 409.088 8.42578 409.79 8.42578ZM409.783 9.02051C409.072 9.02051 408.496 9.25749 408.054 9.73145C407.616 10.2008 407.359 10.8799 407.281 11.7686H411.909C411.909 11.2262 411.832 10.7477 411.677 10.333C411.522 9.91829 411.287 9.59701 410.973 9.36914C410.663 9.13672 410.266 9.02051 409.783 9.02051ZM417.945 8.42578C418.779 8.42578 419.42 8.64453 419.866 9.08203C420.313 9.51953 420.536 10.2054 420.536 11.1396V16H419.853V11.1807C419.853 10.4424 419.684 9.90007 419.347 9.55371C419.009 9.20736 418.52 9.03418 417.877 9.03418C417.061 9.03418 416.437 9.27344 416.004 9.75195C415.576 10.2259 415.361 10.9437 415.361 11.9053V16H414.671V8.56934H415.231L415.334 9.92285H415.375C415.507 9.64486 415.687 9.39421 415.915 9.1709C416.147 8.94303 416.432 8.76302 416.77 8.63086C417.107 8.49414 417.499 8.42578 417.945 8.42578ZM427.283 16H426.586V5.36328H427.283V16ZM432.349 8.43945C433.164 8.43945 433.775 8.64453 434.181 9.05469C434.586 9.46484 434.789 10.1188 434.789 11.0166V16H434.256L434.133 14.7012H434.092C433.932 14.9792 433.739 15.2275 433.511 15.4463C433.283 15.6605 433.003 15.8291 432.67 15.9521C432.342 16.0752 431.941 16.1367 431.467 16.1367C430.988 16.1367 430.578 16.057 430.236 15.8975C429.899 15.738 429.637 15.5055 429.45 15.2002C429.268 14.8949 429.177 14.5234 429.177 14.0859C429.177 13.3477 429.482 12.7871 430.093 12.4043C430.703 12.0169 431.581 11.7982 432.725 11.748L434.105 11.6797V11.1396C434.105 10.3786 433.955 9.83626 433.654 9.5127C433.354 9.18913 432.909 9.02734 432.321 9.02734C431.938 9.02734 431.569 9.07747 431.214 9.17773C430.863 9.27344 430.505 9.41243 430.141 9.59473L429.922 9.02051C430.277 8.85189 430.658 8.71289 431.063 8.60352C431.474 8.49414 431.902 8.43945 432.349 8.43945ZM434.099 12.2197L432.8 12.2744C431.856 12.32 431.139 12.4886 430.646 12.7803C430.154 13.0719 429.908 13.5094 429.908 14.0928C429.908 14.5622 430.054 14.9222 430.346 15.1729C430.642 15.4235 431.052 15.5488 431.576 15.5488C432.392 15.5488 433.014 15.3164 433.442 14.8516C433.875 14.3867 434.094 13.7533 434.099 12.9512V12.2197ZM448.263 16H447.545L441.639 7.16113H441.604C441.614 7.40723 441.62 7.65788 441.625 7.91309C441.634 8.16374 441.641 8.4235 441.646 8.69238C441.655 8.95671 441.659 9.23014 441.659 9.5127V16H440.989V6.00586H441.714L447.6 14.8174H447.634C447.629 14.6169 447.622 14.3844 447.613 14.1201C447.609 13.8558 447.602 13.5846 447.593 13.3066C447.588 13.0286 447.586 12.7666 447.586 12.5205V6.00586H448.263V16ZM456.691 8.56934V16H456.131L456.028 14.6602H455.987C455.86 14.9336 455.68 15.182 455.447 15.4053C455.215 15.6286 454.93 15.8063 454.593 15.9385C454.256 16.0706 453.864 16.1367 453.417 16.1367C452.847 16.1367 452.369 16.0387 451.981 15.8428C451.599 15.6423 451.309 15.3415 451.113 14.9404C450.917 14.5394 450.819 14.0381 450.819 13.4365V8.56934H451.51V13.3682C451.51 14.111 451.676 14.6579 452.009 15.0088C452.346 15.3597 452.838 15.5352 453.485 15.5352C454.032 15.5352 454.49 15.4303 454.859 15.2207C455.233 15.0111 455.516 14.6943 455.707 14.2705C455.903 13.8421 456.001 13.3089 456.001 12.6709V8.56934H456.691ZM459.87 5.36328V8.38477C459.87 8.64453 459.866 8.92936 459.856 9.23926C459.847 9.54915 459.838 9.80664 459.829 10.0117H459.87C460.048 9.55143 460.358 9.1709 460.8 8.87012C461.242 8.56934 461.793 8.41895 462.454 8.41895C463.42 8.41895 464.165 8.74479 464.689 9.39648C465.218 10.0482 465.482 11.0029 465.482 12.2607C465.482 13.0309 465.364 13.7077 465.127 14.291C464.89 14.8698 464.537 15.3232 464.067 15.6514C463.603 15.9749 463.019 16.1367 462.317 16.1367C461.684 16.1367 461.167 16.0046 460.766 15.7402C460.365 15.4714 460.073 15.1364 459.891 14.7354H459.836L459.706 16H459.18V5.36328H459.87ZM462.379 9.02051C461.791 9.02051 461.312 9.14811 460.943 9.40332C460.574 9.65397 460.303 10.0208 460.13 10.5039C459.957 10.987 459.87 11.5771 459.87 12.2744V12.3838C459.87 13.4092 460.057 14.1908 460.431 14.7285C460.804 15.2663 461.41 15.5352 462.249 15.5352C463.078 15.5352 463.705 15.2526 464.129 14.6875C464.557 14.1178 464.771 13.3089 464.771 12.2607C464.771 11.1898 464.573 10.3831 464.177 9.84082C463.78 9.29395 463.181 9.02051 462.379 9.02051ZM470.343 8.42578C470.976 8.42578 471.503 8.57389 471.922 8.87012C472.346 9.16634 472.66 9.57194 472.865 10.0869C473.075 10.6019 473.18 11.1921 473.18 11.8574V12.3564H467.813C467.813 13.3773 468.048 14.1611 468.518 14.708C468.992 15.2549 469.668 15.5283 470.548 15.5283C471.008 15.5283 471.407 15.4919 471.744 15.4189C472.086 15.3415 472.464 15.2116 472.879 15.0293V15.665C472.514 15.8291 472.15 15.9476 471.785 16.0205C471.421 16.098 471.001 16.1367 470.527 16.1367C469.775 16.1367 469.144 15.9818 468.634 15.6719C468.128 15.3574 467.745 14.9154 467.485 14.3457C467.23 13.776 467.103 13.1107 467.103 12.3496C467.103 11.6068 467.226 10.9391 467.472 10.3467C467.722 9.75423 468.087 9.28711 468.565 8.94531C469.049 8.59896 469.641 8.42578 470.343 8.42578ZM470.336 9.02051C469.625 9.02051 469.049 9.25749 468.606 9.73145C468.169 10.2008 467.911 10.8799 467.834 11.7686H472.462C472.462 11.2262 472.384 10.7477 472.229 10.333C472.075 9.91829 471.84 9.59701 471.525 9.36914C471.215 9.13672 470.819 9.02051 470.336 9.02051Z" fill="white"/>
<line y1="13.5" x2="220" y2="13.5" stroke="white" stroke-dasharray="2 2"/>
<path d="M724 14.5C724.276 14.5 724.5 14.2761 724.5 14C724.5 13.7239 724.276 13.5 724 13.5V14.5ZM504 14.5H505V13.5H504V14.5ZM507 14.5H509V13.5H507V14.5ZM511 14.5H513V13.5H511V14.5ZM515 14.5H517V13.5H515V14.5ZM519 14.5H521V13.5H519V14.5ZM523 14.5H525V13.5H523V14.5ZM527 14.5H529V13.5H527V14.5ZM531 14.5H533V13.5H531V14.5ZM535 14.5H537V13.5H535V14.5ZM539 14.5H541V13.5H539V14.5ZM543 14.5H545V13.5H543V14.5ZM547 14.5H549V13.5H547V14.5ZM551 14.5H553V13.5H551V14.5ZM555 14.5H557V13.5H555V14.5ZM559 14.5H561V13.5H559V14.5ZM563 14.5H565V13.5H563V14.5ZM567 14.5H569V13.5H567V14.5ZM571 14.5H573V13.5H571V14.5ZM575 14.5H577V13.5H575V14.5ZM579 14.5H581V13.5H579V14.5ZM583 14.5H585V13.5H583V14.5ZM587 14.5H589V13.5H587V14.5ZM591 14.5H593V13.5H591V14.5ZM595 14.5H597V13.5H595V14.5ZM599 14.5H601V13.5H599V14.5ZM603 14.5H605V13.5H603V14.5ZM607 14.5H609V13.5H607V14.5ZM611 14.5H613V13.5H611V14.5ZM615 14.5H617V13.5H615V14.5ZM619 14.5H621V13.5H619V14.5ZM623 14.5H625V13.5H623V14.5ZM627 14.5H629V13.5H627V14.5ZM631 14.5H633V13.5H631V14.5ZM635 14.5H637V13.5H635V14.5ZM639 14.5H641V13.5H639V14.5ZM643 14.5H645V13.5H643V14.5ZM647 14.5H649V13.5H647V14.5ZM651 14.5H653V13.5H651V14.5ZM655 14.5H657V13.5H655V14.5ZM659 14.5H661V13.5H659V14.5ZM663 14.5H665V13.5H663V14.5ZM667 14.5H669V13.5H667V14.5ZM671 14.5H673V13.5H671V14.5ZM675 14.5H677V13.5H675V14.5ZM679 14.5H681V13.5H679V14.5ZM683 14.5H685V13.5H683V14.5ZM687 14.5H689V13.5H687V14.5ZM691 14.5H693V13.5H691V14.5ZM695 14.5H697V13.5H695V14.5ZM699 14.5H701V13.5H699V14.5ZM703 14.5H705V13.5H703V14.5ZM707 14.5H709V13.5H707V14.5ZM711 14.5H713V13.5H711V14.5ZM715 14.5H717V13.5H715V14.5ZM719 14.5H721V13.5H719V14.5ZM723 14.5H724V13.5H723V14.5Z" fill="white"/>
<line x1="0.5" y1="6" x2="0.500001" y2="22" stroke="white" stroke-dasharray="2 2"/>
<line x1="713.457" y1="0.678606" x2="725.31" y2="14.8038" stroke="white" stroke-dasharray="2 2"/>
<line x1="725.354" y1="14.4161" x2="713.354" y2="26.4161" stroke="white" stroke-dasharray="2 2"/>
</svg>
