<svg width="80" height="80" viewBox="0 0 80 80" fill="none" xmlns="http://www.w3.org/2000/svg">
<g clip-path="url(#clip0_162_2915)">
<path d="M73.7211 50.8729C80.6051 31.4548 70.4441 10.1328 51.026 3.24883C31.6079 -3.63511 10.2859 6.52583 3.40197 25.9439C-3.48196 45.362 6.67898 66.6841 26.0971 73.568C45.5152 80.4519 66.8372 70.291 73.7211 50.8729Z" fill="#EFEFEF"/>
<path d="M44.1829 12.2148L14.0839 43.4109C13.7229 43.786 13.8362 44.4088 14.3103 44.6352L23.6168 48.9806L43.9352 27.3599C44.4377 26.8221 45.3365 27.2396 45.2516 27.9756L41.6847 57.4236L50.8284 61.6911C51.3804 61.953 52.0244 61.585 52.0952 60.9763L56.6741 18.0464C56.7166 17.6642 56.5113 17.3033 56.1645 17.1405L45.202 12.0238C44.8553 11.861 44.4448 11.9388 44.1829 12.2148V12.2148Z" fill="#459AF7"/>
<path d="M28.9813 62.604L39.7952 58.1808C40.5171 57.8835 40.5383 56.8786 39.8377 56.5459L32.6544 53.1914L25.4711 49.8368C24.7634 49.5113 24.0061 50.1765 24.2467 50.9125L27.7994 62.0449C27.9551 62.5403 28.5072 62.7951 28.9884 62.5969L28.9813 62.604Z" fill="#204F7F"/>
</g>
<defs>
<clipPath id="clip0_162_2915">
<rect width="80" height="79.8301" fill="white"/>
</clipPath>
</defs>
</svg>
