<svg width="1306" height="74" viewBox="0 0 1306 74" fill="none" xmlns="http://www.w3.org/2000/svg">
<line x1="66" y1="73" x2="1140" y2="73" stroke="white" stroke-width="2"/>
<line x1="1139.29" y1="73.2929" x2="1211.29" y2="1.29289" stroke="white" stroke-width="2" stroke-dasharray="2 2"/>
<line x1="66" y1="73" y2="73" stroke="white" stroke-width="2" stroke-dasharray="4 4"/>
<path d="M1208.58 35V25.0059H1209.28V35H1208.58ZM1218.36 35L1217 31.4658H1212.8L1211.41 35H1210.7L1214.63 24.9717H1215.27L1219.1 35H1218.36ZM1216.77 30.8301L1215.39 27.084C1215.36 26.9883 1215.31 26.8652 1215.25 26.7148C1215.2 26.5645 1215.15 26.4049 1215.09 26.2363C1215.04 26.0677 1214.98 25.9082 1214.93 25.7578C1214.88 25.9173 1214.83 26.0768 1214.78 26.2363C1214.72 26.3958 1214.67 26.5508 1214.62 26.7012C1214.57 26.847 1214.52 26.9792 1214.48 27.0977L1213.04 30.8301H1216.77ZM1227.03 29.7637H1229.98V30.3584H1227.03V33.3389H1226.43V30.3584H1223.49V29.7637H1226.43V26.7764H1227.03V29.7637ZM1243.06 35H1242.34L1236.43 26.1611H1236.4C1236.41 26.4072 1236.41 26.6579 1236.42 26.9131C1236.43 27.1637 1236.43 27.4235 1236.44 27.6924C1236.45 27.9567 1236.45 28.2301 1236.45 28.5127V35H1235.78V25.0059H1236.51L1242.39 33.8174H1242.43C1242.42 33.6169 1242.42 33.3844 1242.41 33.1201C1242.4 32.8558 1242.4 32.5846 1242.39 32.3066C1242.38 32.0286 1242.38 31.7666 1242.38 31.5205V25.0059H1243.06V35ZM1251.49 27.5693V35H1250.92L1250.82 33.6602H1250.78C1250.65 33.9336 1250.47 34.182 1250.24 34.4053C1250.01 34.6286 1249.72 34.8063 1249.39 34.9385C1249.05 35.0706 1248.66 35.1367 1248.21 35.1367C1247.64 35.1367 1247.16 35.0387 1246.78 34.8428C1246.39 34.6423 1246.1 34.3415 1245.91 33.9404C1245.71 33.5394 1245.61 33.0381 1245.61 32.4365V27.5693H1246.3V32.3682C1246.3 33.111 1246.47 33.6579 1246.8 34.0088C1247.14 34.3597 1247.63 34.5352 1248.28 34.5352C1248.83 34.5352 1249.28 34.4303 1249.65 34.2207C1250.03 34.0111 1250.31 33.6943 1250.5 33.2705C1250.7 32.8421 1250.79 32.3089 1250.79 31.6709V27.5693H1251.49ZM1256.8 27.4258C1257.43 27.4258 1257.96 27.5739 1258.38 27.8701C1258.8 28.1663 1259.11 28.5719 1259.32 29.0869C1259.53 29.6019 1259.63 30.1921 1259.63 30.8574V31.3564H1254.27C1254.27 32.3773 1254.5 33.1611 1254.97 33.708C1255.45 34.2549 1256.12 34.5283 1257 34.5283C1257.46 34.5283 1257.86 34.4919 1258.2 34.4189C1258.54 34.3415 1258.92 34.2116 1259.33 34.0293V34.665C1258.97 34.8291 1258.6 34.9476 1258.24 35.0205C1257.87 35.098 1257.46 35.1367 1256.98 35.1367C1256.23 35.1367 1255.6 34.9818 1255.09 34.6719C1254.58 34.3574 1254.2 33.9154 1253.94 33.3457C1253.68 32.776 1253.56 32.1107 1253.56 31.3496C1253.56 30.6068 1253.68 29.9391 1253.93 29.3467C1254.18 28.7542 1254.54 28.2871 1255.02 27.9453C1255.5 27.599 1256.1 27.4258 1256.8 27.4258ZM1256.79 28.0205C1256.08 28.0205 1255.5 28.2575 1255.06 28.7314C1254.62 29.2008 1254.37 29.8799 1254.29 30.7686H1258.92C1258.92 30.2262 1258.84 29.7477 1258.68 29.333C1258.53 28.9183 1258.29 28.597 1257.98 28.3691C1257.67 28.1367 1257.27 28.0205 1256.79 28.0205ZM1263.3 35L1260.45 27.5693H1261.18L1263.09 32.6348C1263.2 32.9401 1263.31 33.234 1263.4 33.5166C1263.5 33.7946 1263.58 34.0475 1263.64 34.2754H1263.67C1263.75 34.0475 1263.83 33.7923 1263.92 33.5098C1264.02 33.2272 1264.12 32.9355 1264.23 32.6348L1266.14 27.5693H1266.88L1264.02 35H1263.3ZM1270.71 27.4395C1271.53 27.4395 1272.14 27.6445 1272.55 28.0547C1272.95 28.4648 1273.16 29.1188 1273.16 30.0166V35H1272.62L1272.5 33.7012H1272.46C1272.3 33.9792 1272.1 34.2275 1271.88 34.4463C1271.65 34.6605 1271.37 34.8291 1271.04 34.9521C1270.71 35.0752 1270.31 35.1367 1269.83 35.1367C1269.35 35.1367 1268.94 35.057 1268.6 34.8975C1268.27 34.738 1268 34.5055 1267.82 34.2002C1267.63 33.8949 1267.54 33.5234 1267.54 33.0859C1267.54 32.3477 1267.85 31.7871 1268.46 31.4043C1269.07 31.0169 1269.95 30.7982 1271.09 30.748L1272.47 30.6797V30.1396C1272.47 29.3786 1272.32 28.8363 1272.02 28.5127C1271.72 28.1891 1271.28 28.0273 1270.69 28.0273C1270.3 28.0273 1269.94 28.0775 1269.58 28.1777C1269.23 28.2734 1268.87 28.4124 1268.51 28.5947L1268.29 28.0205C1268.64 27.8519 1269.02 27.7129 1269.43 27.6035C1269.84 27.4941 1270.27 27.4395 1270.71 27.4395ZM1272.46 31.2197L1271.17 31.2744C1270.22 31.32 1269.5 31.4886 1269.01 31.7803C1268.52 32.0719 1268.27 32.5094 1268.27 33.0928C1268.27 33.5622 1268.42 33.9222 1268.71 34.1729C1269.01 34.4235 1269.42 34.5488 1269.94 34.5488C1270.76 34.5488 1271.38 34.3164 1271.81 33.8516C1272.24 33.3867 1272.46 32.7533 1272.46 31.9512V31.2197ZM1280.19 33.0518C1280.19 33.4938 1280.08 33.8721 1279.85 34.1865C1279.64 34.4964 1279.31 34.7334 1278.89 34.8975C1278.47 35.057 1277.94 35.1367 1277.33 35.1367C1276.81 35.1367 1276.35 35.0911 1275.94 35C1275.54 34.9089 1275.2 34.7972 1274.93 34.665V33.9814C1275.27 34.1501 1275.65 34.2868 1276.06 34.3916C1276.48 34.4964 1276.9 34.5488 1277.34 34.5488C1278.1 34.5488 1278.66 34.4189 1278.99 34.1592C1279.33 33.8994 1279.5 33.5439 1279.5 33.0928C1279.5 32.7965 1279.41 32.5527 1279.25 32.3613C1279.08 32.1654 1278.85 31.9967 1278.54 31.8555C1278.23 31.7142 1277.85 31.5706 1277.41 31.4248C1276.96 31.2699 1276.55 31.1172 1276.2 30.9668C1275.85 30.8118 1275.57 30.609 1275.37 30.3584C1275.17 30.1032 1275.07 29.7568 1275.07 29.3193C1275.07 28.7223 1275.31 28.2575 1275.79 27.9248C1276.27 27.5921 1276.91 27.4258 1277.71 27.4258C1278.16 27.4258 1278.58 27.4691 1278.96 27.5557C1279.35 27.6377 1279.7 27.7448 1280.01 27.877L1279.77 28.4648C1279.48 28.3327 1279.16 28.2256 1278.79 28.1436C1278.42 28.0615 1278.05 28.0205 1277.68 28.0205C1277.07 28.0205 1276.6 28.1276 1276.26 28.3418C1275.92 28.556 1275.75 28.8704 1275.75 29.2852C1275.75 29.6042 1275.83 29.8548 1275.99 30.0371C1276.16 30.2148 1276.39 30.3652 1276.7 30.4883C1277 30.6068 1277.36 30.7389 1277.78 30.8848C1278.22 31.0352 1278.61 31.1924 1278.98 31.3564C1279.35 31.5205 1279.64 31.7324 1279.86 31.9922C1280.08 32.252 1280.19 32.6051 1280.19 33.0518ZM1211.04 54H1210.33V44.6416H1207.09V44.0059H1214.28V44.6416H1211.04V54ZM1218.41 46.4258C1219.04 46.4258 1219.57 46.5739 1219.99 46.8701C1220.41 47.1663 1220.72 47.5719 1220.93 48.0869C1221.14 48.6019 1221.24 49.1921 1221.24 49.8574V50.3564H1215.88C1215.88 51.3773 1216.11 52.1611 1216.58 52.708C1217.06 53.2549 1217.73 53.5283 1218.61 53.5283C1219.07 53.5283 1219.47 53.4919 1219.81 53.4189C1220.15 53.3415 1220.53 53.2116 1220.94 53.0293V53.665C1220.58 53.8291 1220.21 53.9476 1219.85 54.0205C1219.48 54.098 1219.06 54.1367 1218.59 54.1367C1217.84 54.1367 1217.21 53.9818 1216.7 53.6719C1216.19 53.3574 1215.81 52.9154 1215.55 52.3457C1215.29 51.776 1215.17 51.1107 1215.17 50.3496C1215.17 49.6068 1215.29 48.9391 1215.54 48.3467C1215.79 47.7542 1216.15 47.2871 1216.63 46.9453C1217.11 46.599 1217.7 46.4258 1218.41 46.4258ZM1218.4 47.0205C1217.69 47.0205 1217.11 47.2575 1216.67 47.7314C1216.23 48.2008 1215.97 48.8799 1215.9 49.7686H1220.53C1220.53 49.2262 1220.45 48.7477 1220.29 48.333C1220.14 47.9183 1219.9 47.597 1219.59 47.3691C1219.28 47.1367 1218.88 47.0205 1218.4 47.0205ZM1226.27 54.1367C1225.53 54.1367 1224.9 53.984 1224.39 53.6787C1223.89 53.3688 1223.51 52.929 1223.25 52.3594C1222.99 51.7852 1222.86 51.1061 1222.86 50.3223C1222.86 49.5065 1223.01 48.8092 1223.31 48.2305C1223.6 47.6471 1224.02 47.2005 1224.56 46.8906C1225.1 46.5807 1225.73 46.4258 1226.45 46.4258C1226.81 46.4258 1227.14 46.4577 1227.44 46.5215C1227.75 46.5853 1228.02 46.6742 1228.27 46.7881L1228.09 47.3965C1227.83 47.2826 1227.56 47.196 1227.27 47.1367C1226.99 47.0775 1226.71 47.0479 1226.45 47.0479C1225.83 47.0479 1225.32 47.1823 1224.89 47.4512C1224.46 47.7155 1224.14 48.0938 1223.91 48.5859C1223.69 49.0736 1223.57 49.6501 1223.57 50.3154C1223.57 50.9398 1223.67 51.4935 1223.86 51.9766C1224.05 52.4551 1224.35 52.8333 1224.74 53.1113C1225.14 53.3848 1225.65 53.5215 1226.27 53.5215C1226.63 53.5215 1226.97 53.485 1227.29 53.4121C1227.62 53.3392 1227.92 53.2458 1228.19 53.1318V53.7607C1227.95 53.8701 1227.67 53.959 1227.35 54.0273C1227.03 54.1003 1226.67 54.1367 1226.27 54.1367ZM1233.22 46.4258C1234.05 46.4258 1234.69 46.6445 1235.14 47.082C1235.59 47.5195 1235.81 48.2054 1235.81 49.1396V54H1235.13V49.1807C1235.13 48.4424 1234.96 47.9001 1234.62 47.5537C1234.28 47.2074 1233.79 47.0342 1233.15 47.0342C1232.34 47.0342 1231.71 47.2734 1231.28 47.752C1230.85 48.2259 1230.64 48.9437 1230.64 49.9053V54H1229.95V46.5693H1230.51L1230.61 47.9229H1230.65C1230.78 47.6449 1230.96 47.3942 1231.19 47.1709C1231.42 46.943 1231.71 46.763 1232.04 46.6309C1232.38 46.4941 1232.77 46.4258 1233.22 46.4258ZM1244.38 50.2744C1244.38 50.8486 1244.31 51.3727 1244.17 51.8467C1244.03 52.3161 1243.82 52.7217 1243.54 53.0635C1243.26 53.4053 1242.92 53.6696 1242.5 53.8564C1242.09 54.0433 1241.61 54.1367 1241.07 54.1367C1240.55 54.1367 1240.09 54.0456 1239.68 53.8633C1239.27 53.6764 1238.93 53.4121 1238.65 53.0703C1238.37 52.7285 1238.16 52.3229 1238.01 51.8535C1237.87 51.3796 1237.79 50.8532 1237.79 50.2744C1237.79 49.4769 1237.93 48.791 1238.19 48.2168C1238.46 47.638 1238.84 47.196 1239.34 46.8906C1239.84 46.5807 1240.44 46.4258 1241.14 46.4258C1241.86 46.4258 1242.46 46.5898 1242.93 46.918C1243.42 47.2415 1243.78 47.6927 1244.02 48.2715C1244.26 48.8503 1244.38 49.5179 1244.38 50.2744ZM1238.5 50.2744C1238.5 50.9261 1238.6 51.4958 1238.78 51.9834C1238.97 52.471 1239.25 52.8516 1239.63 53.125C1240.01 53.3984 1240.5 53.5352 1241.08 53.5352C1241.68 53.5352 1242.17 53.3984 1242.55 53.125C1242.93 52.8516 1243.22 52.4688 1243.4 51.9766C1243.58 51.4844 1243.67 50.917 1243.67 50.2744C1243.67 49.6501 1243.59 49.0941 1243.41 48.6064C1243.24 48.1188 1242.97 47.736 1242.59 47.458C1242.22 47.1755 1241.73 47.0342 1241.13 47.0342C1240.27 47.0342 1239.61 47.3213 1239.17 47.8955C1238.72 48.4697 1238.5 49.2627 1238.5 50.2744ZM1247.14 54H1246.44V43.3633H1247.14V54ZM1255.77 50.2744C1255.77 50.8486 1255.7 51.3727 1255.56 51.8467C1255.42 52.3161 1255.21 52.7217 1254.93 53.0635C1254.65 53.4053 1254.31 53.6696 1253.89 53.8564C1253.48 54.0433 1253 54.1367 1252.46 54.1367C1251.94 54.1367 1251.47 54.0456 1251.07 53.8633C1250.66 53.6764 1250.32 53.4121 1250.04 53.0703C1249.76 52.7285 1249.55 52.3229 1249.4 51.8535C1249.25 51.3796 1249.18 50.8532 1249.18 50.2744C1249.18 49.4769 1249.31 48.791 1249.58 48.2168C1249.85 47.638 1250.23 47.196 1250.73 46.8906C1251.23 46.5807 1251.83 46.4258 1252.52 46.4258C1253.24 46.4258 1253.84 46.5898 1254.32 46.918C1254.81 47.2415 1255.17 47.6927 1255.41 48.2715C1255.65 48.8503 1255.77 49.5179 1255.77 50.2744ZM1249.89 50.2744C1249.89 50.9261 1249.99 51.4958 1250.17 51.9834C1250.36 52.471 1250.64 52.8516 1251.02 53.125C1251.4 53.3984 1251.89 53.5352 1252.47 53.5352C1253.07 53.5352 1253.56 53.3984 1253.94 53.125C1254.32 52.8516 1254.6 52.4688 1254.79 51.9766C1254.97 51.4844 1255.06 50.917 1255.06 50.2744C1255.06 49.6501 1254.97 49.0941 1254.8 48.6064C1254.63 48.1188 1254.35 47.736 1253.98 47.458C1253.61 47.1755 1253.12 47.0342 1252.52 47.0342C1251.66 47.0342 1251 47.3213 1250.56 47.8955C1250.11 48.4697 1249.89 49.2627 1249.89 50.2744ZM1259.79 57.3633C1258.86 57.3633 1258.13 57.1833 1257.61 56.8232C1257.1 56.4632 1256.84 55.9596 1256.84 55.3125C1256.84 54.8112 1257 54.3783 1257.31 54.0137C1257.62 53.6536 1258.05 53.4372 1258.59 53.3643C1258.37 53.264 1258.2 53.1273 1258.06 52.9541C1257.93 52.7809 1257.86 52.5804 1257.86 52.3525C1257.86 52.0973 1257.94 51.8604 1258.1 51.6416C1258.26 51.4183 1258.5 51.2132 1258.82 51.0264C1258.39 50.8714 1258.05 50.6094 1257.81 50.2402C1257.56 49.8665 1257.44 49.4176 1257.44 48.8936C1257.44 48.3923 1257.55 47.957 1257.76 47.5879C1257.97 47.2188 1258.28 46.9339 1258.67 46.7334C1259.07 46.5283 1259.53 46.4258 1260.07 46.4258C1260.24 46.4258 1260.38 46.4303 1260.52 46.4395C1260.65 46.4486 1260.78 46.4645 1260.89 46.4873C1261.01 46.5055 1261.11 46.5306 1261.2 46.5625H1263.6V47.0547L1262.07 47.1572C1262.27 47.3988 1262.42 47.6608 1262.52 47.9434C1262.62 48.2214 1262.67 48.5153 1262.67 48.8252C1262.67 49.5635 1262.44 50.1491 1261.97 50.582C1261.51 51.015 1260.86 51.2314 1260.03 51.2314C1259.8 51.2314 1259.58 51.2109 1259.36 51.1699C1259.08 51.334 1258.87 51.5003 1258.72 51.6689C1258.58 51.833 1258.51 52.0381 1258.51 52.2842C1258.51 52.4391 1258.55 52.5667 1258.64 52.667C1258.73 52.7627 1258.87 52.8379 1259.04 52.8926C1259.21 52.9427 1259.42 52.9678 1259.67 52.9678H1260.98C1261.79 52.9678 1262.4 53.1318 1262.83 53.46C1263.26 53.7881 1263.48 54.2712 1263.48 54.9092C1263.48 55.6885 1263.15 56.2923 1262.51 56.7207C1261.87 57.1491 1260.97 57.3633 1259.79 57.3633ZM1259.84 56.7822C1260.49 56.7822 1261.03 56.7116 1261.47 56.5703C1261.9 56.429 1262.23 56.2194 1262.45 55.9414C1262.67 55.668 1262.78 55.3285 1262.78 54.9229C1262.78 54.5902 1262.7 54.3327 1262.54 54.1504C1262.38 53.9681 1262.15 53.8428 1261.86 53.7744C1261.57 53.7015 1261.23 53.665 1260.83 53.665H1259.59C1259.19 53.665 1258.84 53.7197 1258.53 53.8291C1258.22 53.9339 1257.97 54.1025 1257.8 54.335C1257.63 54.5674 1257.55 54.8773 1257.55 55.2646C1257.55 55.7614 1257.74 56.1374 1258.13 56.3926C1258.52 56.6523 1259.09 56.7822 1259.84 56.7822ZM1260.06 50.6777C1260.67 50.6777 1261.14 50.5228 1261.47 50.2129C1261.8 49.903 1261.96 49.4541 1261.96 48.8662C1261.96 48.2373 1261.8 47.7656 1261.46 47.4512C1261.12 47.1367 1260.65 46.9795 1260.04 46.9795C1259.46 46.9795 1258.99 47.1481 1258.66 47.4854C1258.32 47.818 1258.16 48.2874 1258.16 48.8936C1258.16 49.4587 1258.32 49.8984 1258.64 50.2129C1258.95 50.5228 1259.43 50.6777 1260.06 50.6777ZM1265.79 54H1265.1V46.5693H1265.79V54ZM1267.44 43.2744V43.3906C1267.33 43.5365 1267.2 43.7028 1267.04 43.8896C1266.88 44.0719 1266.7 44.2611 1266.52 44.457C1266.33 44.653 1266.14 44.8421 1265.95 45.0244C1265.76 45.2067 1265.57 45.3708 1265.4 45.5166H1264.9V45.4004C1265.09 45.2181 1265.29 45.0016 1265.51 44.751C1265.72 44.4958 1265.93 44.2383 1266.13 43.9785C1266.33 43.7142 1266.49 43.4795 1266.62 43.2744H1267.44ZM1270.87 46.4395C1271.68 46.4395 1272.29 46.6445 1272.7 47.0547C1273.1 47.4648 1273.31 48.1188 1273.31 49.0166V54H1272.77L1272.65 52.7012H1272.61C1272.45 52.9792 1272.26 53.2275 1272.03 53.4463C1271.8 53.6605 1271.52 53.8291 1271.19 53.9521C1270.86 54.0752 1270.46 54.1367 1269.98 54.1367C1269.5 54.1367 1269.09 54.057 1268.75 53.8975C1268.42 53.738 1268.15 53.5055 1267.97 53.2002C1267.78 52.8949 1267.69 52.5234 1267.69 52.0859C1267.69 51.3477 1268 50.7871 1268.61 50.4043C1269.22 50.0169 1270.1 49.7982 1271.24 49.748L1272.62 49.6797V49.1396C1272.62 48.3786 1272.47 47.8363 1272.17 47.5127C1271.87 47.1891 1271.43 47.0273 1270.84 47.0273C1270.46 47.0273 1270.09 47.0775 1269.73 47.1777C1269.38 47.2734 1269.02 47.4124 1268.66 47.5947L1268.44 47.0205C1268.79 46.8519 1269.17 46.7129 1269.58 46.6035C1269.99 46.4941 1270.42 46.4395 1270.87 46.4395ZM1272.62 50.2197L1271.32 50.2744C1270.37 50.32 1269.66 50.4886 1269.16 50.7803C1268.67 51.0719 1268.42 51.5094 1268.42 52.0928C1268.42 52.5622 1268.57 52.9222 1268.86 53.1729C1269.16 53.4235 1269.57 53.5488 1270.09 53.5488C1270.91 53.5488 1271.53 53.3164 1271.96 52.8516C1272.39 52.3867 1272.61 51.7533 1272.62 50.9512V50.2197ZM1280.34 52.0518C1280.34 52.4938 1280.23 52.8721 1280 53.1865C1279.79 53.4964 1279.46 53.7334 1279.04 53.8975C1278.62 54.057 1278.1 54.1367 1277.48 54.1367C1276.96 54.1367 1276.5 54.0911 1276.09 54C1275.69 53.9089 1275.35 53.7972 1275.08 53.665V52.9814C1275.42 53.1501 1275.8 53.2868 1276.21 53.3916C1276.63 53.4964 1277.05 53.5488 1277.49 53.5488C1278.25 53.5488 1278.81 53.4189 1279.14 53.1592C1279.48 52.8994 1279.65 52.5439 1279.65 52.0928C1279.65 51.7965 1279.57 51.5527 1279.4 51.3613C1279.23 51.1654 1279 50.9967 1278.69 50.8555C1278.38 50.7142 1278 50.5706 1277.56 50.4248C1277.11 50.2699 1276.7 50.1172 1276.35 49.9668C1276 49.8118 1275.72 49.609 1275.52 49.3584C1275.32 49.1032 1275.22 48.7568 1275.22 48.3193C1275.22 47.7223 1275.46 47.2575 1275.94 46.9248C1276.42 46.5921 1277.06 46.4258 1277.87 46.4258C1278.31 46.4258 1278.73 46.4691 1279.11 46.5557C1279.5 46.6377 1279.85 46.7448 1280.16 46.877L1279.92 47.4648C1279.63 47.3327 1279.31 47.2256 1278.94 47.1436C1278.57 47.0615 1278.2 47.0205 1277.83 47.0205C1277.22 47.0205 1276.75 47.1276 1276.41 47.3418C1276.07 47.556 1275.9 47.8704 1275.9 48.2852C1275.9 48.6042 1275.98 48.8548 1276.14 49.0371C1276.31 49.2148 1276.54 49.3652 1276.85 49.4883C1277.15 49.6068 1277.51 49.7389 1277.93 49.8848C1278.37 50.0352 1278.77 50.1924 1279.13 50.3564C1279.5 50.5205 1279.79 50.7324 1280.01 50.9922C1280.23 51.252 1280.34 51.6051 1280.34 52.0518Z" fill="white"/>
</svg>
