<svg width="80" height="80" viewBox="0 0 80 80" fill="none" xmlns="http://www.w3.org/2000/svg">
<g clip-path="url(#clip0_2_1300)">
<path d="M52.2328 71.9594C70.988 64.2072 79.8944 42.751 72.1257 24.0356C64.357 5.32016 42.8552 -3.56729 24.0999 4.18488C5.3447 11.9371 -3.56166 33.3933 4.20701 52.1087C11.9757 70.8241 33.4775 79.7115 52.2328 71.9594Z" fill="#EFEFEF"/>
<path d="M13.0614 33.5895L43.8075 63.1849C44.1771 63.5398 44.7908 63.4284 45.014 62.9622L49.2957 53.8115L27.9916 33.8331C27.4617 33.339 27.8731 32.4553 28.5983 32.5388L57.6151 36.046L61.8201 27.0553C62.0781 26.5125 61.7155 25.8793 61.1158 25.8097L18.8145 21.3074C18.4379 21.2657 18.0823 21.4675 17.9219 21.8085L12.8801 32.5875C12.7197 32.9285 12.7964 33.3321 13.0684 33.5895H13.0614Z" fill="#3DF99F"/>
<path d="M62.7197 48.5367L58.3612 37.9038C58.0684 37.194 57.0781 37.1731 56.7504 37.8621L53.4449 44.9251L50.1395 51.9882C49.8187 52.6841 50.4742 53.4287 51.1995 53.1921L62.1688 49.6988C62.6569 49.5457 62.908 49.0029 62.7127 48.5297L62.7197 48.5367Z" fill="#1F7D50"/>
</g>
<defs>
<clipPath id="clip0_2_1300">
<rect width="80" height="79.8301" fill="white"/>
</clipPath>
</defs>
</svg>
