<?xml version="1.0" encoding="UTF-8"?>
<svg xmlns="http://www.w3.org/2000/svg" width="252" height="64" viewBox="0 0 252 64" fill="none">
  <g clip-path="url(#clip0_423_7332)">
    <path d="M92.0618 36.8082V36.4778C97.8064 36.5108 102.422 32.4241 102.422 26.9549C102.422 20.7256 98.0487 16.7435 90.1506 16.7435H77.9014V47.1848H85.8931V37.4471C89.1317 43.3735 96.0604 47.3115 102.967 47.631V38.2458C100.031 39.0609 95.1296 38.4496 92.0618 36.8138V36.8082ZM87.4353 34.1535C86.9396 34.1535 86.4274 34.1095 85.8931 34.0434V24.5645H89.6824C92.921 24.5645 94.4136 26.1893 94.4136 29.0148C94.4136 32.2313 91.6928 34.148 87.4353 34.148V34.1535Z" fill="#443F4C"></path>
    <path d="M153.716 16.738H142.155V47.262C146.974 47.262 149.541 45.3948 150.025 41.633H150.372V47.262H153.958C162.324 47.262 169.804 42.1398 169.804 31.7577C169.804 23.4465 165.056 16.738 153.716 16.738ZM153.126 40.179H150.444V24.9776H153.627C159.295 24.9776 161.735 28.1336 161.735 32.0055C161.735 37.1277 159.13 40.179 153.126 40.179Z" fill="#443F4C"></path>
    <path d="M236.475 26.6795C236.475 25.3356 237.742 24.4929 241.432 24.4929C243.673 24.4929 247.694 25.0492 250.051 26.283V17.7184C247.903 16.8372 244.841 15.9559 241.2 15.9559C232.895 15.9559 228.577 20.0262 228.577 25.9305C228.577 38.1742 243.701 33.443 243.701 38.2182C243.701 39.9311 242.357 40.9611 238.579 40.9611C233.132 40.9611 228.946 38.5762 228.946 38.5762V46.1329C231.039 47.2564 234.338 48.0991 238.221 48.0991C245.403 48.0991 251.522 45.7253 251.522 38.422C251.522 26.9108 236.48 31.1683 236.48 26.674L236.475 26.6795Z" fill="#443F4C"></path>
    <path d="M185.16 16.7821H176.859V47.262H185.16V16.7821Z" fill="#443F4C"></path>
    <path d="M212.406 35.3157V35.3046C212.406 39.0444 209.724 40.8179 207.135 40.8179C204.288 40.8179 202.239 38.367 202.239 35.3267V16.738H194.115V35.8003C194.115 44.1115 198.411 48.1267 204.326 48.1267C208.033 48.1267 211.541 45.5601 212.053 42.294H212.406V47.262H220.409V16.738H212.406V35.3157Z" fill="#443F4C"></path>
    <path d="M54.6249 54.6275C67.1217 42.1308 67.1217 21.8695 54.6249 9.37271C42.1281 -3.12407 21.8669 -3.12407 9.37009 9.37271C-3.12669 21.8695 -3.12669 42.1308 9.37009 54.6275C21.8669 67.1243 42.1281 67.1243 54.6249 54.6275Z" fill="#FA484B"></path>
    <path d="M25.969 10.9273L13.6482 46.8213C13.4995 47.2564 13.8189 47.708 14.2816 47.708H23.2757L31.3831 23.0278C31.5869 22.4165 32.4516 22.4165 32.6499 23.0278L40.7298 47.7025H49.5642C50.0984 47.7025 50.4785 47.1738 50.3022 46.6671L38.0365 10.9273C37.9263 10.6134 37.6289 10.3986 37.2984 10.3986H26.707C26.3711 10.3986 26.0792 10.6079 25.969 10.9273Z" fill="white"></path>
    <path d="M32.5731 56.5314L39.5128 49.0188C39.9755 48.5176 39.6175 47.708 38.94 47.708H25.055C24.372 47.708 24.0195 48.5176 24.4822 49.0188L31.4219 56.5314C31.7304 56.8674 32.2591 56.8674 32.5675 56.5314H32.5731Z" fill="#85001B"></path>
    <path d="M117.221 17.2117L107.131 46.612C107.01 46.9645 107.274 47.3391 107.649 47.3391H115.013L121.65 27.1257C121.815 26.6244 122.525 26.6244 122.691 27.1257L129.305 47.3391H136.543C136.983 47.3391 137.292 46.9095 137.149 46.4909L127.102 17.2117C127.014 16.9528 126.772 16.7821 126.497 16.7821H117.822C117.546 16.7821 117.304 16.9584 117.216 17.2117H117.221Z" fill="#443F4C"></path>
    <path d="M122.63 54.5652L128.314 48.413C128.694 48.0054 128.402 47.339 127.846 47.339H116.472C115.916 47.339 115.624 48.0054 116.004 48.413L121.688 54.5652C121.941 54.8405 122.376 54.8405 122.63 54.5652Z" fill="#FA484B"></path>
  </g>
  <defs>
    <clipPath id="clip0_423_7332">
      <rect width="251.517" height="64" fill="white"></rect>
    </clipPath>
  </defs>
</svg>
