<svg width="70" height="70" viewBox="0 0 70 70" fill="none" xmlns="http://www.w3.org/2000/svg">
<g clip-path="url(#clip0_423_7420)">
<path d="M70.002 34.9999C70.002 15.6699 54.3319 -0.000132075 35.002 -0.00013123C15.672 -0.000130385 0.00195075 15.6699 0.0019516 34.9999C0.00195244 54.3298 15.672 69.9999 35.002 69.9999C54.3319 69.9999 70.002 54.3298 70.002 34.9999Z" fill="#FA484B"/>
<path d="M28.4039 11.9518L14.928 51.2109C14.7654 51.6868 15.1147 52.1808 15.6208 52.1808H25.4581L34.3256 25.1868C34.5485 24.5181 35.4943 24.5181 35.7111 25.1868L44.5485 52.1747H54.2111C54.7955 52.1747 55.2111 51.5964 55.0184 51.0422L41.6027 11.9518C41.4822 11.6085 41.1569 11.3735 40.7955 11.3735H29.2111C28.8437 11.3735 28.5244 11.6025 28.4039 11.9518Z" fill="white"/>
<path d="M35.6266 61.8314L43.217 53.6145C43.723 53.0663 43.3314 52.1808 42.5905 52.1808H27.4037C26.6567 52.1808 26.2712 53.0663 26.7772 53.6145L34.3676 61.8314C34.7049 62.1989 35.2832 62.1989 35.6206 61.8314H35.6266Z" fill="#85001B"/>
</g>
<defs>
<clipPath id="clip0_423_7420">
<rect width="70" height="70" fill="white"/>
</clipPath>
</defs>
</svg>
