<svg width="191" height="36" viewBox="0 0 191 36" fill="none" xmlns="http://www.w3.org/2000/svg">
<path d="M15.5167 22.851V22.4888C21.8083 22.529 26.8747 18.0484 26.8747 12.0564C26.8702 5.22372 22.0766 0.859375 13.4239 0.859375H0V34.2224H8.75551V23.5486C12.306 30.0414 19.8989 34.3611 27.4649 34.7098V24.4206C24.2453 25.3149 18.8749 24.6441 15.5122 22.851H15.5167ZM10.4458 19.94C9.90473 19.94 9.3413 19.8952 8.75998 19.8237V9.44049H12.9097C16.4557 9.44049 18.0968 11.2247 18.0968 14.3191C18.0968 17.8472 15.1142 19.9444 10.4458 19.9444V19.94Z" fill="white"/>
<path d="M83.0828 0.859375H70.4102V34.3119C75.6912 34.3119 78.5039 32.2683 79.036 28.141H79.4161V34.3119H83.3422C92.5091 34.3119 100.71 28.6955 100.71 17.3196C100.71 8.21078 95.5096 0.859375 83.0784 0.859375H83.0828ZM82.4389 26.5446H79.501V9.88766H82.9934C89.2045 9.88766 91.8786 13.3443 91.8786 17.5923C91.8786 23.2043 89.0257 26.5491 82.4434 26.5491L82.4389 26.5446Z" fill="white"/>
<path d="M173.782 11.756C173.782 10.2848 175.168 9.36366 179.215 9.36366C181.674 9.36366 186.079 9.9718 188.663 11.3222V1.93176C186.311 0.965879 182.953 0 178.964 0C169.864 0 165.129 4.45825 165.129 10.9332C165.129 24.3527 181.701 19.1655 181.701 24.3974C181.701 26.2755 180.23 27.4068 176.084 27.4068C170.115 27.4068 165.527 24.7954 165.527 24.7954V33.0769C167.821 34.311 171.434 35.2322 175.691 35.2322C183.561 35.2322 190.269 32.6297 190.269 24.6299C190.269 12.0109 173.782 16.6793 173.782 11.756V11.756Z" fill="white"/>
<path d="M117.541 0.902344H108.445V34.3101H117.541V0.902344Z" fill="white"/>
<path d="M147.403 21.2233V21.2144C147.398 25.3104 144.46 27.2601 141.625 27.2601C138.504 27.2601 136.255 24.5726 136.255 21.2412V0.859375H127.352V21.751C127.352 30.8597 132.06 35.2599 138.544 35.2599C142.604 35.2599 146.45 32.4472 147.013 28.8654H147.398V34.3119H156.167V0.859375H147.398V21.2233H147.403Z" fill="white"/>
<path d="M43.0837 1.37634L32.0253 33.5991C31.8911 33.9882 32.1818 34.3951 32.5932 34.3951H40.6645L47.9399 12.2425C48.1188 11.6925 48.9013 11.6925 49.0802 12.2425L56.3332 34.3951H64.2615C64.7444 34.3951 65.0798 33.9211 64.9233 33.465L53.9185 1.37634C53.8201 1.09463 53.5563 0.902344 53.2567 0.902344H43.75C43.4504 0.902344 43.1865 1.09463 43.0882 1.37634H43.0837Z" fill="white"/>
</svg>
