<?xml version="1.0" encoding="UTF-8"?>
<svg xmlns="http://www.w3.org/2000/svg" width="170" height="44" viewBox="0 0 170 44" fill="none">
  <g clip-path="url(#clip0_726_7062)">
    <path d="M62.2243 24.8787V24.6554C66.1071 24.6777 69.2267 21.9155 69.2267 18.2189C69.2267 14.0085 66.2709 11.317 60.9326 11.317H52.6533V31.8923H58.0549V25.3106C60.2439 29.3162 64.927 31.9779 69.5952 32.1938V25.8504C67.6111 26.4013 64.2979 25.9881 62.2243 24.8825V24.8787ZM59.0973 23.0844C58.7622 23.0844 58.416 23.0546 58.0549 23.01V16.6032H60.6161C62.8051 16.6032 63.8139 17.7014 63.8139 19.6112C63.8139 21.7852 61.9749 23.0807 59.0973 23.0807V23.0844Z" fill="white"></path>
    <path d="M103.896 11.3132H96.0825V31.9443C99.3399 31.9443 101.075 30.6823 101.402 28.1398H101.637V31.9443H104.06C109.715 31.9443 114.77 28.4822 114.77 21.465C114.77 15.8475 111.561 11.3132 103.896 11.3132ZM103.498 27.157H101.685V16.8824H103.837C107.668 16.8824 109.317 19.0155 109.317 21.6325C109.317 25.0946 107.556 27.157 103.498 27.157Z" fill="white"></path>
    <path d="M159.833 18.0326C159.833 17.1243 160.69 16.5547 163.184 16.5547C164.699 16.5547 167.417 16.9307 169.01 17.7646V11.9758C167.558 11.3802 165.488 10.7845 163.027 10.7845C157.414 10.7845 154.495 13.5356 154.495 17.5263C154.495 25.8018 164.718 22.6041 164.718 25.8316C164.718 26.9894 163.809 27.6855 161.256 27.6855C157.574 27.6855 154.745 26.0736 154.745 26.0736V31.1811C156.159 31.9405 158.389 32.5101 161.014 32.5101C165.868 32.5101 170.004 30.9056 170.004 25.9694C170.004 18.189 159.837 21.0666 159.837 18.0289L159.833 18.0326Z" fill="white"></path>
    <path d="M125.149 11.343H119.539V31.9443H125.149V11.343Z" fill="white"></path>
    <path d="M143.565 23.8698V23.8624C143.565 26.3901 141.752 27.5888 140.003 27.5888C138.078 27.5888 136.693 25.9322 136.693 23.8773V11.3132H131.202V24.1974C131.202 29.815 134.106 32.5288 138.104 32.5288C140.609 32.5288 142.981 30.794 143.327 28.5865H143.565V31.9443H148.974V11.3132H143.565V23.8698Z" fill="white"></path>
    <path d="M36.9206 36.9226C45.3672 28.4761 45.3672 14.7815 36.9206 6.33493C28.4741 -2.11164 14.7795 -2.11164 6.33292 6.33493C-2.11364 14.7815 -2.11364 28.4761 6.33292 36.9226C14.7795 45.3692 28.4741 45.3692 36.9206 36.9226Z" fill="white"></path>
    <path d="M17.5523 7.3857L9.22461 31.6464C9.1241 31.9405 9.34002 32.2458 9.65272 32.2458H15.7319L21.2116 15.5644C21.3494 15.1512 21.9339 15.1512 22.0679 15.5644L27.529 32.242H33.5002C33.8613 32.242 34.1182 31.8847 33.9991 31.5422L25.7086 7.3857C25.6342 7.17351 25.4332 7.02832 25.2098 7.02832H18.0511C17.824 7.02832 17.6267 7.16978 17.5523 7.3857Z" fill="#11081D"></path>
    <path d="M22.0161 38.2096L26.7067 33.1318C27.0194 32.7931 26.7774 32.2458 26.3195 32.2458H16.9347C16.4731 32.2458 16.2348 32.7931 16.5475 33.1318L21.2381 38.2096C21.4466 38.4367 21.8039 38.4367 22.0124 38.2096H22.0161Z" fill="#11081D"></path>
    <path d="M79.2297 11.6334L72.4097 31.5051C72.3278 31.7433 72.5065 31.9965 72.7597 31.9965H77.7369L82.2227 18.3342C82.3344 17.9955 82.8146 17.9955 82.9263 18.3342L87.3973 31.9965H92.2889C92.5867 31.9965 92.7952 31.7061 92.6984 31.4232L85.9082 11.6334C85.8486 11.4584 85.6848 11.343 85.4987 11.343H79.6355C79.4493 11.343 79.2855 11.4621 79.226 11.6334H79.2297Z" fill="white"></path>
    <path d="M82.8856 36.8805L86.7274 32.7223C86.9842 32.4468 86.7869 31.9963 86.4109 31.9963H78.7236C78.3476 31.9963 78.1503 32.4468 78.4072 32.7223L82.249 36.8805C82.4202 37.0666 82.7143 37.0666 82.8856 36.8805Z" fill="white"></path>
  </g>
  <defs>
    <clipPath id="clip0_726_7062">
      <rect width="170" height="43.2576" fill="white"></rect>
    </clipPath>
  </defs>
</svg>
