<?xml version="1.0" encoding="UTF-8"?>
<svg xmlns="http://www.w3.org/2000/svg" width="134" height="39" viewBox="0 0 134 39" fill="none">
  <g clip-path="url(#clip0_423_7509)">
    <path fill-rule="evenodd" clip-rule="evenodd" d="M102.554 38.3017C104.836 38.9785 127.18 38.6826 130.561 28.6248C128.27 28.3604 121.678 30.4066 119.455 30.7906C118.281 30.9921 116.962 31.2062 115.844 31.6563C114.913 32.0341 113.965 32.7487 113.09 33.2618C112.026 33.8819 111.204 34.1369 110.04 34.4895C108.777 34.8704 107.581 35.6983 106.265 36.0981C105.299 36.3909 104.188 36.5829 103.319 37.1212L102.557 38.3017H102.554Z" fill="#575757"></path>
    <path fill-rule="evenodd" clip-rule="evenodd" d="M90.2248 28.442C91.314 34.3665 102.395 39.0287 104.164 38.4967C104.772 38.3141 115.985 33.4694 116.882 33.0601C117.719 32.6761 118.692 32.4053 119.136 31.4893C115.528 31.3728 102.3 29.4085 99.2406 29.3927C96.2437 29.3801 93.0391 28.0832 90.0391 28.0643C90.3066 28.0076 90.5585 29.4242 90.7033 29.484L90.2279 28.442H90.2248Z" fill="#858585"></path>
    <path fill-rule="evenodd" clip-rule="evenodd" d="M99.8019 12.2301C99.8554 12.7243 99.698 13.1682 99.7043 13.653C99.7201 14.5124 100.095 15.1357 100.334 15.929C100.608 16.8387 99.3927 17.5785 99.5658 18.5323C100.022 21.0633 100.132 24.035 101.414 26.3551C101.917 27.2648 101.722 28.4264 102.267 29.3425C102.874 30.3687 105.638 30.8567 106.819 30.6206C108.311 30.3247 107.766 29.8619 106.318 27.2082C105.777 26.2166 103.718 19.7978 103.12 17.61C102.903 16.8167 101.968 10.0139 99.805 11.8492V12.2269L99.8019 12.2301Z" fill="#6C6C6C"></path>
    <path fill-rule="evenodd" clip-rule="evenodd" d="M106.891 29.8084C107.902 29.7958 109.797 29.7644 110.81 29.7014C112.485 29.6007 118.63 28.7003 119.785 27.6426C126.015 21.9479 119.829 9.05379 119.716 7.30352C121.797 7.25944 124.567 6.62355 126.534 7.30981C126.547 7.98978 126.944 8.4116 127.133 9.00657C127.463 10.0454 127.227 11.1503 127.293 12.227C127.381 13.653 127.495 15.1357 127.372 16.5743C127.202 18.5733 127.252 21.9227 125.895 23.5849C125.042 24.6268 124.173 25.4957 123.714 26.843C123.418 27.715 123.314 28.2817 123.314 29.2072C123.314 30.7874 123.191 30.7717 124.734 30.9071C125.212 30.9511 127.101 30.8567 127.24 31.0172C127.813 31.6689 127.032 31.8011 126.578 31.9742C124.938 32.5944 122.858 32.33 121.129 32.3331C118.066 32.3363 107.429 31.0047 106.381 30.8252C105.796 30.7245 106.853 30.7213 106.381 30.4884L106.888 29.8116L106.891 29.8084Z" fill="#595959"></path>
    <path fill-rule="evenodd" clip-rule="evenodd" d="M131.183 7.01694C129.848 7.01694 128.517 7.00749 127.201 7.11452C125.533 7.24989 126.159 6.49122 126.332 7.83226C128.18 22.3382 119.857 30.0413 120.187 31.1934C120.757 33.1861 127.44 31.7632 127.44 31.7632C129.014 32.0056 130.774 29.6131 131.558 28.2658C132.93 25.8954 133.711 22.9835 133.938 20.2322C134.448 14.0023 131.879 7.2247 131.186 7.11138V7.01694H131.183Z" fill="#656565"></path>
    <path fill-rule="evenodd" clip-rule="evenodd" d="M100.089 3.31815C99.6671 5.12509 99.3901 7.06424 99.6828 8.9247C99.8528 10.0076 99.3901 10.8418 99.8056 11.8492C100.224 12.8597 99.8749 14.3424 101.134 13.9835C102.119 13.7033 104.641 10.0485 111.941 8.15345C114.28 7.54589 118.344 8.10937 120.708 7.56477C120.359 6.22059 119.106 6.16077 117.988 5.22582C115.69 3.30556 112.593 2.99705 109.665 2.94039C107.455 2.89947 105.214 2.72633 103.017 2.91206C102.05 2.99391 101.128 3.30556 100.183 3.41259L100.089 3.31815Z" fill="#999999"></path>
    <path fill-rule="evenodd" clip-rule="evenodd" d="M116.867 0.286664C120.264 0.286664 125.043 -0.0218384 127.753 2.35489C129.292 3.70537 130.741 5.16918 131.172 7.11463C130.007 7.57738 127.01 7.97718 125.804 7.41684C125.213 7.13982 125.036 6.463 124.552 5.94988C124.155 5.5312 123.768 5.45565 123.318 5.1377C122.789 4.76309 122.518 4.29404 122.008 3.91314C121.18 3.29613 120.059 3.08522 119.225 2.45247C118.394 1.82288 117.516 1.40105 116.682 0.755713L116.871 0.280368L116.867 0.286664Z" fill="#909090"></path>
    <path fill-rule="evenodd" clip-rule="evenodd" d="M95.1583 3.69912C98.4543 3.70541 113.823 3.77467 119.048 6.97616C121.079 8.21961 124.076 7.82297 126.342 7.50188C126.248 2.59103 123.745 0.683352 122.952 0.478733C120.912 -0.0469791 111.758 0.000240555 109.567 0.000240555C103.938 0.000240555 95.6305 1.47035 91.9316 4.45778L95.1552 3.69912H95.1583Z" fill="#5E5E5E"></path>
    <path fill-rule="evenodd" clip-rule="evenodd" d="M100.941 3.69914C98.3569 3.69914 94.5038 3.2238 92.1711 4.31615C87.6192 6.45048 88.1512 24.7843 89.3285 26.8116C89.6748 27.4129 90.062 28.2408 90.5122 28.7571C91.1481 29.4874 91.9823 29.4433 93.0211 29.585C95.6843 29.947 98.5112 30.1988 101.206 30.0572C101.851 30.0257 102.541 30.1359 102.846 29.5126C103.164 28.8641 102.871 27.2177 102.644 26.5787C102.32 25.6657 102.084 25.0299 101.898 24.0162C101.716 23.012 101.37 22.0487 101.149 21.0508C100.696 19.0078 100.793 16.7475 100.661 14.6226C100.428 10.908 100.469 7.01082 100.941 3.31824V3.69599V3.69914Z" fill="#D0D0D0"></path>
    <path fill-rule="evenodd" clip-rule="evenodd" d="M11.1568 36.4285C10.5965 36.5827 9.99207 36.7087 9.34044 36.8062C8.6888 36.9038 8.10328 36.9542 7.59016 36.9542C5.80211 36.9542 4.44533 36.4505 3.51982 35.44C2.59431 34.4295 2.13156 32.8115 2.13156 30.5858V20.8114H0.135742V18.2174H2.12527V14.0936L5.07492 12.9572V18.2174H11.1537V20.8114H5.07807V29.1944C5.07807 30.1609 5.10011 30.9164 5.14418 31.461C5.18825 32.0056 5.32991 32.5124 5.5723 32.9846C5.80211 33.4253 6.12005 33.7464 6.52614 33.9479C6.93223 34.1494 7.54609 34.2532 8.36771 34.2532C8.84935 34.2532 9.34988 34.1777 9.8693 34.0266C10.3887 33.8755 10.7633 33.7496 10.9963 33.6488H11.16V36.4285H11.1568Z" fill="white"></path>
    <path fill-rule="evenodd" clip-rule="evenodd" d="M29.067 27.7465H16.1603C16.1603 28.8735 16.3208 29.8557 16.6451 30.6899C16.9693 31.5273 17.41 32.2135 17.9704 32.7487C18.5181 33.2744 19.1666 33.6679 19.9127 33.9292C20.6587 34.1904 21.4804 34.3227 22.3807 34.3227C23.5769 34.3227 24.7763 34.074 25.982 33.5797C27.1877 33.0855 28.0502 32.5976 28.5633 32.1191H28.7113V35.4811C27.726 35.9187 26.7123 36.2838 25.6798 36.5798C24.6441 36.8757 23.558 37.0236 22.4153 37.0236C19.5097 37.0236 17.2432 36.1989 15.6157 34.5493C13.9882 32.8998 13.1729 30.5545 13.1729 27.5199C13.1729 24.4852 13.9536 22.1305 15.5181 20.3677C17.0795 18.6016 19.1351 17.7202 21.6787 17.7202C24.046 17.7202 25.8718 18.4442 27.1499 19.8923C28.428 21.3404 29.067 23.3992 29.067 26.0655V27.7434V27.7465ZM26.2244 25.3635C26.2118 23.7454 25.8214 22.4926 25.0533 21.608C24.2821 20.7234 23.1142 20.2795 21.5402 20.2795C19.9662 20.2795 18.6944 20.7675 17.7532 21.7402C16.8119 22.7129 16.2831 23.9217 16.1603 25.3635H26.2212H26.2244Z" fill="white"></path>
    <path fill-rule="evenodd" clip-rule="evenodd" d="M44.1289 21.5952H43.9652C43.5276 21.4819 43.1058 21.4 42.6966 21.3496C42.2873 21.2993 41.7962 21.2741 41.2296 21.2741C40.323 21.2741 39.4478 21.485 38.6073 21.9068C37.7668 22.3287 36.9515 22.8764 36.1645 23.5438V36.5953H33.2148V18.2174H36.1645V20.931C37.3324 19.9456 38.3618 19.2436 39.2527 18.8344C40.1435 18.422 41.0533 18.2174 41.982 18.2174C42.4951 18.2174 42.8666 18.23 43.0964 18.2583C43.3262 18.2867 43.6693 18.337 44.1289 18.4157V21.5952Z" fill="white"></path>
    <path fill-rule="evenodd" clip-rule="evenodd" d="M57.5056 21.5952H57.3419C56.9044 21.4819 56.4825 21.4 56.0733 21.3496C55.6641 21.2993 55.173 21.2741 54.6063 21.2741C53.6997 21.2741 52.8246 21.485 51.9841 21.9068C51.1436 22.3287 50.3282 22.8764 49.5444 23.5438V36.5953H46.5947V18.2174H49.5444V20.931C50.7123 19.9456 51.7417 19.2436 52.6325 18.8344C53.5234 18.422 54.4332 18.2174 55.3618 18.2174C55.875 18.2174 56.2464 18.23 56.4762 18.2583C56.706 18.2867 57.0492 18.337 57.5088 18.4157V21.5952H57.5056Z" fill="white"></path>
    <path fill-rule="evenodd" clip-rule="evenodd" d="M73.0191 33.3247L70.082 34.7948C69.8207 34.9805 69.4178 35.0781 68.977 35.4118C68.5363 35.7455 68.1082 36.0099 67.6927 36.2082C67.2016 36.46 66.6412 36.671 66.0085 36.841C65.3758 37.0109 64.6328 37.0959 63.7829 37.0959C62.212 37.0959 60.8836 36.5482 59.7912 35.4558C58.6989 34.3603 58.1543 32.9658 58.1543 31.269C58.1543 29.8776 58.4376 28.7538 59.0043 27.8944C59.5709 27.035 60.3768 26.3613 61.425 25.8671C62.4828 25.376 63.7546 25.0423 65.2435 24.866C66.7325 24.6897 68.3254 24.5607 70.0285 24.4725V23.9909C70.0285 23.2826 69.912 22.6971 69.6759 22.2312C69.4398 21.7653 69.1061 21.4033 68.6685 21.1357C68.253 20.8807 67.7556 20.7107 67.1701 20.6194C66.5877 20.5313 65.977 20.4872 65.3443 20.4872C64.5793 20.4872 63.7231 20.5974 62.7724 20.8146C61.8217 21.0349 60.8458 21.3497 59.8416 21.7653H59.6779V18.6236C60.2571 18.4599 61.0882 18.2773 62.1711 18.079C63.254 17.8807 64.318 17.7831 65.3663 17.7831C66.6003 17.7831 67.6769 17.8901 68.5898 18.1042C69.5028 18.3182 70.2929 18.6834 70.9603 19.1965C71.6151 19.7002 72.1156 20.3518 72.4587 21.1546C72.8018 21.9542 72.975 22.9458 72.975 24.1294L73.0128 33.3184L73.0191 33.3247ZM70.0316 32.0907V26.9626C69.1407 27.0161 68.0925 27.098 66.8868 27.2113C65.6811 27.3215 64.7241 27.4789 64.019 27.6898C63.1816 27.9448 62.5048 28.3351 61.9885 28.8703C61.4723 29.4023 61.2141 30.1358 61.2141 31.0707C61.2141 32.1253 61.5132 32.9217 62.1113 33.4537C62.7094 33.9889 63.6286 34.2533 64.8658 34.2533C65.8857 34.2533 66.8238 34.0424 67.6769 33.6174C68.53 33.1956 69.317 32.6856 70.0316 32.0907Z" fill="white"></path>
  </g>
  <defs>
    <clipPath id="clip0_423_7509">
      <rect width="133.865" height="38.5376" fill="white" transform="translate(0.135742 0.00012207)"></rect>
    </clipPath>
  </defs>
</svg>
