<?xml version="1.0" encoding="UTF-8"?>
<svg xmlns="http://www.w3.org/2000/svg" width="177" height="39" viewBox="0 0 177 39" fill="none">
  <g clip-path="url(#clip0_423_7485)">
    <path fill-rule="evenodd" clip-rule="evenodd" d="M98.5048 24.7002C98.5048 25.0375 98.4707 25.39 98.3797 25.6932C97.9969 26.9629 96.6779 28.0431 95.0292 28.0431C93.6572 28.0431 92.5619 27.2585 92.5619 25.6136C92.5619 23.0894 95.34 22.3958 98.5048 22.4109V24.704V24.7002ZM103.458 20.3074C103.458 16.1459 101.681 12.4846 95.6774 12.4846C92.596 12.4846 90.1476 13.3488 88.8134 14.122L89.7875 17.4686C91.0117 16.6954 92.956 16.0587 94.798 16.0587C97.8453 16.0511 98.3418 17.7794 98.3418 18.8937V19.1514C91.7015 19.1439 87.5059 21.4407 87.5059 26.1253C87.5059 28.9868 89.6473 31.6664 93.3578 31.6664C95.6432 31.6664 97.5573 30.7568 98.7019 29.2938H98.8156C98.8156 29.2938 99.5736 32.4623 103.75 31.2533C103.534 29.9267 103.462 28.5168 103.462 26.8264V20.2998L103.458 20.3074Z" fill="#EFF0F1"></path>
    <path fill-rule="evenodd" clip-rule="evenodd" d="M0 6.82227C0 6.82227 4.33969 24.6017 5.03328 27.486C5.84057 30.8592 7.29598 32.0948 11.4954 31.2648L14.2054 20.2393C14.8914 17.499 15.3538 15.5509 15.7934 12.7614H15.8692C16.18 15.5774 16.6235 17.5104 17.1882 20.2507C17.1882 20.2507 18.2911 25.2536 18.8558 27.8802C19.4206 30.5067 20.9973 32.163 25.1095 31.2648L31.5679 6.82227H26.3565L24.1506 17.3853C23.5556 20.4591 23.0174 22.8621 22.6081 25.6781H22.5323C22.157 22.8924 21.6795 20.5842 21.0731 17.59L18.7762 6.82227H13.345L10.889 17.3171C10.1916 20.5046 9.54352 23.0819 9.12661 25.7994H9.0508C8.62631 23.2411 8.06158 20.0043 7.45137 16.9154C7.45137 16.9154 5.99218 9.40713 5.48051 6.81848H0V6.82227Z" fill="#EFF0F1"></path>
    <path fill-rule="evenodd" clip-rule="evenodd" d="M41.4219 24.7002C41.4219 25.0375 41.3916 25.39 41.3006 25.6932C40.9178 26.9629 39.6026 28.0431 37.9539 28.0431C36.5819 28.0431 35.4904 27.2585 35.4904 25.6136C35.4904 23.0894 38.2647 22.3958 41.4257 22.4109V24.704L41.4219 24.7002ZM46.3794 20.3074C46.3794 16.1459 44.6056 12.4846 38.5983 12.4846C35.5131 12.4846 33.0685 13.3488 31.7306 14.122L32.7122 17.4686C33.9326 16.6954 35.8769 16.0587 37.7189 16.0587C40.7624 16.0511 41.2627 17.7794 41.2627 18.8937V19.1514C34.6186 19.1439 30.4268 21.4407 30.4268 26.1253C30.4268 28.9868 32.5644 31.6664 36.2749 31.6664C38.5604 31.6664 40.4744 30.7568 41.619 29.2938H41.7327C41.7327 29.2938 42.4907 32.4623 46.6712 31.2533C46.4476 29.9267 46.3794 28.5168 46.3794 26.8264V20.2998V20.3074Z" fill="#EFF0F1"></path>
    <path fill-rule="evenodd" clip-rule="evenodd" d="M54.6497 26.0685V6.81848H49.6885V31.261H54.6497V26.0685Z" fill="#EFF0F1"></path>
    <path fill-rule="evenodd" clip-rule="evenodd" d="M119.583 6.82227V24.8519C119.583 27.3306 120.045 29.0778 121.05 30.1429C121.921 31.0714 123.358 31.6741 125.082 31.6741C126.553 31.6741 127.997 31.3974 128.675 31.1435L128.611 27.2662C128.107 27.3912 127.523 27.486 126.727 27.486C125.037 27.486 124.468 26.4096 124.468 24.1734V17.283H128.789V12.606H124.468V6.82606H119.575L119.583 6.82227Z" fill="#EFF0F1"></path>
    <path fill-rule="evenodd" clip-rule="evenodd" d="M106.768 12.9015V31.2609H111.885V21.8538C111.885 21.3497 111.919 20.9063 111.995 20.5007C112.378 18.5336 113.879 17.2753 116.047 17.2753C116.638 17.2753 117.062 17.336 117.521 17.4042V12.5983C117.138 12.5187 116.88 12.4846 116.395 12.4846C114.485 12.4846 112.313 13.7164 111.4 16.3619H111.256V12.9015H106.765H106.768Z" fill="#EFF0F1"></path>
    <path fill-rule="evenodd" clip-rule="evenodd" d="M58.1289 12.9015V31.2609H63.1167V20.4931C63.1167 19.9853 63.1736 19.4509 63.3517 18.9923C63.7648 17.9083 64.773 16.6348 66.3838 16.6348C68.3963 16.6348 69.3363 18.3366 69.3363 20.7964V31.2609H74.3203V20.3643C74.3203 19.8791 74.3885 19.303 74.5288 18.8748C74.9419 17.643 76.0258 16.6348 77.5229 16.6348C79.562 16.6348 80.5399 18.31 80.5399 21.2019V31.2609H85.5315V20.4439C85.5315 14.7397 82.632 12.4846 79.3649 12.4846C77.9133 12.4846 76.7763 12.8485 75.7416 13.4814C74.8699 14.0158 74.0967 14.7739 73.4183 15.7669H73.3462C72.5541 13.7884 70.7045 12.4846 68.2864 12.4846C65.1861 12.4846 63.7876 14.0575 62.9386 15.3954H62.8666V12.9015H58.1327H58.1289Z" fill="#EFF0F1"></path>
    <path fill-rule="evenodd" clip-rule="evenodd" d="M156.619 13.1707C157.522 13.1707 158.264 12.7008 158.367 12.0906L159.261 1.99747C159.261 1.00067 158.09 0.182007 156.623 0.182007C155.156 0.182007 153.985 1.00067 153.985 1.99747L154.876 12.0906C154.975 12.7008 155.721 13.1707 156.623 13.1707H156.619Z" fill="#EFF0F1"></path>
    <path fill-rule="evenodd" clip-rule="evenodd" d="M151.165 16.3203C151.616 15.5395 151.582 14.6602 151.104 14.2736L142.808 8.452C141.947 7.95549 140.647 8.55433 139.919 9.82781C139.184 11.0975 139.313 12.5188 140.173 13.0191L149.357 17.2943C149.933 17.5066 150.714 17.0973 151.169 16.3165L151.165 16.3203Z" fill="#EFF0F1"></path>
    <path fill-rule="evenodd" clip-rule="evenodd" d="M162.077 16.3165C162.532 17.0973 163.309 17.5104 163.885 17.2943L173.072 13.0191C173.933 12.5188 174.061 11.0975 173.322 9.82781C172.591 8.55433 171.298 7.95549 170.431 8.452L162.138 14.2736C161.664 14.6602 161.63 15.5433 162.081 16.3203L162.077 16.3165Z" fill="#EFF0F1"></path>
    <path fill-rule="evenodd" clip-rule="evenodd" d="M156.619 25.7729C157.522 25.7729 158.264 26.2429 158.367 26.8493L159.261 36.9462C159.261 37.943 158.09 38.7617 156.623 38.7617C155.156 38.7617 153.985 37.9392 153.985 36.9462L154.876 26.8493C154.975 26.2429 155.721 25.7729 156.623 25.7729H156.619Z" fill="#EFF0F1"></path>
    <path fill-rule="evenodd" clip-rule="evenodd" d="M162.077 22.6272C162.532 21.8464 163.309 21.4333 163.885 21.6493L173.072 25.9246C173.933 26.4249 174.061 27.8424 173.322 29.1196C172.591 30.3893 171.298 30.992 170.431 30.4992L162.138 24.6776C161.664 24.2835 161.63 23.4041 162.081 22.6234L162.077 22.6272Z" fill="#EFF0F1"></path>
    <path fill-rule="evenodd" clip-rule="evenodd" d="M151.165 22.6233C151.616 23.4041 151.582 24.2834 151.104 24.6776L142.808 30.4916C141.947 30.9881 140.647 30.3893 139.919 29.1196C139.184 27.8461 139.313 26.4248 140.173 25.9245L149.357 21.6531C149.933 21.437 150.714 21.8464 151.169 22.6271L151.165 22.6233Z" fill="#EFF0F1"></path>
    <path fill-rule="evenodd" clip-rule="evenodd" d="M173.913 32.1441C174.004 32.1972 174.144 32.2464 174.288 32.2464C174.474 32.2464 174.576 32.163 174.576 32.0342C174.576 31.9129 174.497 31.8447 174.296 31.7765C174.038 31.6817 173.875 31.5453 173.875 31.3216C173.875 31.0639 174.087 30.8668 174.429 30.8668C174.595 30.8668 174.724 30.9047 174.804 30.9464L174.732 31.1776C174.675 31.1473 174.569 31.1018 174.421 31.1018C174.239 31.1018 174.163 31.2004 174.163 31.2913C174.163 31.4164 174.254 31.4695 174.463 31.549C174.732 31.6476 174.864 31.7878 174.864 32.0114C174.864 32.2654 174.675 32.4814 174.273 32.4814C174.106 32.4814 173.936 32.4359 173.849 32.3867L173.913 32.1479V32.1441Z" fill="#EFF0F1"></path>
    <path fill-rule="evenodd" clip-rule="evenodd" d="M176.457 31.8181C176.446 31.6172 176.434 31.3747 176.434 31.1624H176.427C176.378 31.3519 176.313 31.568 176.241 31.7612L176.014 32.4435H175.794L175.585 31.7726C175.529 31.5717 175.472 31.3595 175.43 31.1624H175.423C175.415 31.3633 175.404 31.6172 175.396 31.8333L175.362 32.4624H175.093L175.199 30.8971H175.574L175.779 31.5263C175.836 31.7082 175.881 31.8939 175.923 32.0682H175.93C175.968 31.9015 176.025 31.7044 176.086 31.5225L176.302 30.8933H176.673L176.768 32.4586H176.488L176.457 31.8181Z" fill="#EFF0F1"></path>
  </g>
  <defs>
    <clipPath id="clip0_423_7485">
      <rect width="176.764" height="38.5796" fill="white" transform="translate(0 0.182007)"></rect>
    </clipPath>
  </defs>
</svg>
